<?xml version="1.0" encoding="utf-8" standalone="no"?>
<!DOCTYPE svg PUBLIC "-//W3C//DTD SVG 1.1//EN"
  "http://www.w3.org/Graphics/SVG/1.1/DTD/svg11.dtd">
<svg xmlns:xlink="http://www.w3.org/1999/xlink" width="864pt" height="432pt" viewBox="0 0 864 432" xmlns="http://www.w3.org/2000/svg" version="1.1">
 <metadata>
  <rdf:RDF xmlns:dc="http://purl.org/dc/elements/1.1/" xmlns:cc="http://creativecommons.org/ns#" xmlns:rdf="http://www.w3.org/1999/02/22-rdf-syntax-ns#">
   <cc:Work>
    <dc:type rdf:resource="http://purl.org/dc/dcmitype/StillImage"/>
    <dc:date>2026-10-04T23:44:02.342625</dc:date>
    <dc:format>image/svg+xml</dc:format>
    <dc:creator>
     <cc:Agent>
      <dc:title>Matplotlib v3.11.2, https://matplotlib.org/</dc:title>
     </cc:Agent>
    </dc:creator>
   </cc:Work>
  </rdf:RDF>
 </metadata>
 <defs>
  <style type="text/css">*{stroke-linejoin: round; stroke-linecap: butt}</style>
 </defs>
 <g id="figure_1">
  <g id="patch_1">
   <path d="M 0 432 
L 864 432 
L 864 0 
L 0 0 
z
" style="fill: #ffffff"/>
  </g>
  <g id="axes_1">
   <g id="patch_2">
    <path d="M 69.12 367.2 
L 846.72 367.2 
L 846.72 82.08 
L 69.12 82.08 
z
" style="fill: #ffffff"/>
   </g>
   <g id="matplotlib.axis_1">
    <g id="xtick_1">
     <g id="line2d_1">
      <defs>
       <path id="m5e68b43734" d="M 0 0 
L 0 3.5 
" style="stroke: #000000; stroke-width: 0.8"/>
      </defs>
      <g>
       <use xlink:href="#m5e68b43734" x="75.612022" y="367.2" style="stroke: #000000; stroke-width: 0.8"/>
      </g>
     </g>
     <g id="text_1">
      <text style="font-size: 10px; font-family: 'DejaVu Sans'; text-anchor: middle" x="75.612022" y="381.797656" transform="rotate(-0 75.612022 381.797656)">15</text>
     </g>
    </g>
    <g id="xtick_2">
     <g id="line2d_2">
      <g>
       <use xlink:href="#m5e68b43734" x="198.239109" y="367.2" style="stroke: #000000; stroke-width: 0.8"/>
      </g>
     </g>
     <g id="text_2">
      <text style="font-size: 10px; font-family: 'DejaVu Sans'; text-anchor: middle" x="198.239109" y="381.797656" transform="rotate(-0 198.239109 381.797656)">Jan</text>
     </g>
    </g>
    <g id="xtick_3">
     <g id="line2d_3">
      <g>
       <use xlink:href="#m5e68b43734" x="299.226122" y="367.2" style="stroke: #000000; stroke-width: 0.8"/>
      </g>
     </g>
     <g id="text_3">
      <text style="font-size: 10px; font-family: 'DejaVu Sans'; text-anchor: middle" x="299.226122" y="381.797656" transform="rotate(-0 299.226122 381.797656)">15</text>
     </g>
    </g>
    <g id="xtick_4">
     <g id="line2d_4">
      <g>
       <use xlink:href="#m5e68b43734" x="421.85321" y="367.2" style="stroke: #000000; stroke-width: 0.8"/>
      </g>
     </g>
     <g id="text_4">
      <text style="font-size: 10px; font-family: 'DejaVu Sans'; text-anchor: middle" x="421.85321" y="381.798437" transform="rotate(-0 421.85321 381.798437)">Feb</text>
     </g>
    </g>
    <g id="xtick_5">
     <g id="line2d_5">
      <g>
       <use xlink:href="#m5e68b43734" x="522.840223" y="367.2" style="stroke: #000000; stroke-width: 0.8"/>
      </g>
     </g>
     <g id="text_5">
      <text style="font-size: 10px; font-family: 'DejaVu Sans'; text-anchor: middle" x="522.840223" y="381.797656" transform="rotate(-0 522.840223 381.797656)">15</text>
     </g>
    </g>
    <g id="xtick_6">
     <g id="line2d_6">
      <g>
       <use xlink:href="#m5e68b43734" x="623.827236" y="367.2" style="stroke: #000000; stroke-width: 0.8"/>
      </g>
     </g>
     <g id="text_6">
      <text style="font-size: 10px; font-family: 'DejaVu Sans'; text-anchor: middle" x="623.827236" y="381.797656" transform="rotate(-0 623.827236 381.797656)">Mar</text>
     </g>
    </g>
    <g id="xtick_7">
     <g id="line2d_7">
      <g>
       <use xlink:href="#m5e68b43734" x="724.814249" y="367.2" style="stroke: #000000; stroke-width: 0.8"/>
      </g>
     </g>
     <g id="text_7">
      <text style="font-size: 10px; font-family: 'DejaVu Sans'; text-anchor: middle" x="724.814249" y="381.797656" transform="rotate(-0 724.814249 381.797656)">15</text>
     </g>
    </g>
    <g id="text_8">
     <text style="font-size: 10px; font-family: 'DejaVu Sans'; text-anchor: middle" x="457.92" y="395.799219" transform="rotate(-0 457.92 395.799219)">Prediction week beginning Monday (UTC)</text>
    </g>
    <g id="text_9">
     <text style="font-size: 10px; font-family: 'DejaVu Sans'; text-anchor: end" x="846.72" y="394.798437" transform="rotate(-0 846.72 394.798437)">2023-Mar</text>
    </g>
   </g>
   <g id="matplotlib.axis_2">
    <g id="ytick_1">
     <g id="line2d_8">
      <path d="M 69.12 367.2 
L 846.72 367.2 
" clip-path="url(#p301b18f506)" style="fill: none; stroke: #b0b0b0; stroke-opacity: 0.2; stroke-width: 0.8; stroke-linecap: square"/>
     </g>
     <g id="line2d_9">
      <defs>
       <path id="mcc5143e1e8" d="M 0 0 
L -3.5 0 
" style="stroke: #000000; stroke-width: 0.8"/>
      </defs>
      <g>
       <use xlink:href="#mcc5143e1e8" x="69.12" y="367.2" style="stroke: #000000; stroke-width: 0.8"/>
      </g>
     </g>
     <g id="text_10">
      <text style="font-size: 10px; font-family: 'DejaVu Sans'; text-anchor: end" x="62.12" y="370.998828" transform="rotate(-0 62.12 370.998828)">0.0</text>
     </g>
    </g>
    <g id="ytick_2">
     <g id="line2d_10">
      <path d="M 69.12 310.176 
L 846.72 310.176 
" clip-path="url(#p301b18f506)" style="fill: none; stroke: #b0b0b0; stroke-opacity: 0.2; stroke-width: 0.8; stroke-linecap: square"/>
     </g>
     <g id="line2d_11">
      <g>
       <use xlink:href="#mcc5143e1e8" x="69.12" y="310.176" style="stroke: #000000; stroke-width: 0.8"/>
      </g>
     </g>
     <g id="text_11">
      <text style="font-size: 10px; font-family: 'DejaVu Sans'; text-anchor: end" x="62.12" y="313.974828" transform="rotate(-0 62.12 313.974828)">0.2</text>
     </g>
    </g>
    <g id="ytick_3">
     <g id="line2d_12">
      <path d="M 69.12 253.152 
L 846.72 253.152 
" clip-path="url(#p301b18f506)" style="fill: none; stroke: #b0b0b0; stroke-opacity: 0.2; stroke-width: 0.8; stroke-linecap: square"/>
     </g>
     <g id="line2d_13">
      <g>
       <use xlink:href="#mcc5143e1e8" x="69.12" y="253.152" style="stroke: #000000; stroke-width: 0.8"/>
      </g>
     </g>
     <g id="text_12">
      <text style="font-size: 10px; font-family: 'DejaVu Sans'; text-anchor: end" x="62.12" y="256.950828" transform="rotate(-0 62.12 256.950828)">0.4</text>
     </g>
    </g>
    <g id="ytick_4">
     <g id="line2d_14">
      <path d="M 69.12 196.128 
L 846.72 196.128 
" clip-path="url(#p301b18f506)" style="fill: none; stroke: #b0b0b0; stroke-opacity: 0.2; stroke-width: 0.8; stroke-linecap: square"/>
     </g>
     <g id="line2d_15">
      <g>
       <use xlink:href="#mcc5143e1e8" x="69.12" y="196.128" style="stroke: #000000; stroke-width: 0.8"/>
      </g>
     </g>
     <g id="text_13">
      <text style="font-size: 10px; font-family: 'DejaVu Sans'; text-anchor: end" x="62.12" y="199.926828" transform="rotate(-0 62.12 199.926828)">0.6</text>
     </g>
    </g>
    <g id="ytick_5">
     <g id="line2d_16">
      <path d="M 69.12 139.104 
L 846.72 139.104 
" clip-path="url(#p301b18f506)" style="fill: none; stroke: #b0b0b0; stroke-opacity: 0.2; stroke-width: 0.8; stroke-linecap: square"/>
     </g>
     <g id="line2d_17">
      <g>
       <use xlink:href="#mcc5143e1e8" x="69.12" y="139.104" style="stroke: #000000; stroke-width: 0.8"/>
      </g>
     </g>
     <g id="text_14">
      <text style="font-size: 10px; font-family: 'DejaVu Sans'; text-anchor: end" x="62.12" y="142.902828" transform="rotate(-0 62.12 142.902828)">0.8</text>
     </g>
    </g>
    <g id="ytick_6">
     <g id="line2d_18">
      <path d="M 69.12 82.08 
L 846.72 82.08 
" clip-path="url(#p301b18f506)" style="fill: none; stroke: #b0b0b0; stroke-opacity: 0.2; stroke-width: 0.8; stroke-linecap: square"/>
     </g>
     <g id="line2d_19">
      <g>
       <use xlink:href="#mcc5143e1e8" x="69.12" y="82.08" style="stroke: #000000; stroke-width: 0.8"/>
      </g>
     </g>
     <g id="text_15">
      <text style="font-size: 10px; font-family: 'DejaVu Sans'; text-anchor: end" x="62.12" y="85.878828" transform="rotate(-0 62.12 85.878828)">1.0</text>
     </g>
    </g>
    <g id="text_16">
     <text style="font-size: 10px; font-family: 'DejaVu Sans'; text-anchor: middle" x="39.814531" y="224.64" transform="rotate(-90 39.814531 224.64)">Class-0 average precision</text>
    </g>
   </g>
   <g id="line2d_20">
    <path d="M 104.465455 218.21409 
L 154.958961 219.054174 
L 205.452468 213.919488 
L 255.945974 210.964186 
L 306.439481 227.988133 
L 356.932987 219.105542 
L 407.426494 218.325262 
L 457.92 215.367805 
L 508.413506 216.044232 
L 558.907013 217.713356 
L 609.400519 217.809 
L 659.894026 220.245087 
L 710.387532 215.193253 
L 760.881039 208.647692 
L 811.374545 206.023918 
" clip-path="url(#p301b18f506)" style="fill: none; stroke: #737373; stroke-width: 1.6; stroke-linecap: square"/>
    <defs>
     <path id="made9ba3238" d="M 0 1.25 
C 0.331504 1.25 0.649475 1.118292 0.883883 0.883883 
C 1.118292 0.649475 1.25 0.331504 1.25 0 
C 1.25 -0.331504 1.118292 -0.649475 0.883883 -0.883883 
C 0.649475 -1.118292 0.331504 -1.25 0 -1.25 
C -0.331504 -1.25 -0.649475 -1.118292 -0.883883 -0.883883 
C -1.118292 -0.649475 -1.25 -0.331504 -1.25 0 
C -1.25 0.331504 -1.118292 0.649475 -0.883883 0.883883 
C -0.649475 1.118292 -0.331504 1.25 0 1.25 
z
" style="stroke: #737373"/>
    </defs>
    <g clip-path="url(#p301b18f506)">
     <use xlink:href="#made9ba3238" x="104.465455" y="218.21409" style="fill: #737373; stroke: #737373"/>
     <use xlink:href="#made9ba3238" x="154.958961" y="219.054174" style="fill: #737373; stroke: #737373"/>
     <use xlink:href="#made9ba3238" x="205.452468" y="213.919488" style="fill: #737373; stroke: #737373"/>
     <use xlink:href="#made9ba3238" x="255.945974" y="210.964186" style="fill: #737373; stroke: #737373"/>
     <use xlink:href="#made9ba3238" x="306.439481" y="227.988133" style="fill: #737373; stroke: #737373"/>
     <use xlink:href="#made9ba3238" x="356.932987" y="219.105542" style="fill: #737373; stroke: #737373"/>
     <use xlink:href="#made9ba3238" x="407.426494" y="218.325262" style="fill: #737373; stroke: #737373"/>
     <use xlink:href="#made9ba3238" x="457.92" y="215.367805" style="fill: #737373; stroke: #737373"/>
     <use xlink:href="#made9ba3238" x="508.413506" y="216.044232" style="fill: #737373; stroke: #737373"/>
     <use xlink:href="#made9ba3238" x="558.907013" y="217.713356" style="fill: #737373; stroke: #737373"/>
     <use xlink:href="#made9ba3238" x="609.400519" y="217.809" style="fill: #737373; stroke: #737373"/>
     <use xlink:href="#made9ba3238" x="659.894026" y="220.245087" style="fill: #737373; stroke: #737373"/>
     <use xlink:href="#made9ba3238" x="710.387532" y="215.193253" style="fill: #737373; stroke: #737373"/>
     <use xlink:href="#made9ba3238" x="760.881039" y="208.647692" style="fill: #737373; stroke: #737373"/>
     <use xlink:href="#made9ba3238" x="811.374545" y="206.023918" style="fill: #737373; stroke: #737373"/>
    </g>
   </g>
   <g id="line2d_21">
    <path d="M 104.465455 200.760132 
L 154.958961 217.808396 
L 205.452468 207.643605 
L 255.945974 205.273318 
L 306.439481 223.726839 
L 356.932987 207.388343 
L 407.426494 212.666508 
L 457.92 208.172129 
L 508.413506 204.175957 
L 558.907013 209.509617 
L 609.400519 209.649776 
L 659.894026 213.372198 
L 710.387532 207.036974 
L 760.881039 197.490974 
L 811.374545 199.10901 
" clip-path="url(#p301b18f506)" style="fill: none; stroke: #b65b25; stroke-width: 1.6; stroke-linecap: square"/>
    <defs>
     <path id="mc2ad2986f4" d="M 0 1.25 
C 0.331504 1.25 0.649475 1.118292 0.883883 0.883883 
C 1.118292 0.649475 1.25 0.331504 1.25 0 
C 1.25 -0.331504 1.118292 -0.649475 0.883883 -0.883883 
C 0.649475 -1.118292 0.331504 -1.25 0 -1.25 
C -0.331504 -1.25 -0.649475 -1.118292 -0.883883 -0.883883 
C -1.118292 -0.649475 -1.25 -0.331504 -1.25 0 
C -1.25 0.331504 -1.118292 0.649475 -0.883883 0.883883 
C -0.649475 1.118292 -0.331504 1.25 0 1.25 
z
" style="stroke: #b65b25"/>
    </defs>
    <g clip-path="url(#p301b18f506)">
     <use xlink:href="#mc2ad2986f4" x="104.465455" y="200.760132" style="fill: #b65b25; stroke: #b65b25"/>
     <use xlink:href="#mc2ad2986f4" x="154.958961" y="217.808396" style="fill: #b65b25; stroke: #b65b25"/>
     <use xlink:href="#mc2ad2986f4" x="205.452468" y="207.643605" style="fill: #b65b25; stroke: #b65b25"/>
     <use xlink:href="#mc2ad2986f4" x="255.945974" y="205.273318" style="fill: #b65b25; stroke: #b65b25"/>
     <use xlink:href="#mc2ad2986f4" x="306.439481" y="223.726839" style="fill: #b65b25; stroke: #b65b25"/>
     <use xlink:href="#mc2ad2986f4" x="356.932987" y="207.388343" style="fill: #b65b25; stroke: #b65b25"/>
     <use xlink:href="#mc2ad2986f4" x="407.426494" y="212.666508" style="fill: #b65b25; stroke: #b65b25"/>
     <use xlink:href="#mc2ad2986f4" x="457.92" y="208.172129" style="fill: #b65b25; stroke: #b65b25"/>
     <use xlink:href="#mc2ad2986f4" x="508.413506" y="204.175957" style="fill: #b65b25; stroke: #b65b25"/>
     <use xlink:href="#mc2ad2986f4" x="558.907013" y="209.509617" style="fill: #b65b25; stroke: #b65b25"/>
     <use xlink:href="#mc2ad2986f4" x="609.400519" y="209.649776" style="fill: #b65b25; stroke: #b65b25"/>
     <use xlink:href="#mc2ad2986f4" x="659.894026" y="213.372198" style="fill: #b65b25; stroke: #b65b25"/>
     <use xlink:href="#mc2ad2986f4" x="710.387532" y="207.036974" style="fill: #b65b25; stroke: #b65b25"/>
     <use xlink:href="#mc2ad2986f4" x="760.881039" y="197.490974" style="fill: #b65b25; stroke: #b65b25"/>
     <use xlink:href="#mc2ad2986f4" x="811.374545" y="199.10901" style="fill: #b65b25; stroke: #b65b25"/>
    </g>
   </g>
   <g id="line2d_22">
    <path d="M 104.465455 209.248124 
L 154.958961 208.137418 
L 205.452468 199.930463 
L 255.945974 203.231323 
L 306.439481 213.556044 
L 356.932987 205.979259 
L 407.426494 218.654595 
L 457.92 208.809131 
L 508.413506 218.099101 
L 558.907013 212.947891 
L 609.400519 217.972362 
L 659.894026 218.69757 
L 710.387532 215.183718 
L 760.881039 198.136798 
L 811.374545 194.748811 
" clip-path="url(#p301b18f506)" style="fill: none; stroke: #174a75; stroke-width: 1.6; stroke-linecap: square"/>
    <defs>
     <path id="m536fed7bf6" d="M 0 1.25 
C 0.331504 1.25 0.649475 1.118292 0.883883 0.883883 
C 1.118292 0.649475 1.25 0.331504 1.25 0 
C 1.25 -0.331504 1.118292 -0.649475 0.883883 -0.883883 
C 0.649475 -1.118292 0.331504 -1.25 0 -1.25 
C -0.331504 -1.25 -0.649475 -1.118292 -0.883883 -0.883883 
C -1.118292 -0.649475 -1.25 -0.331504 -1.25 0 
C -1.25 0.331504 -1.118292 0.649475 -0.883883 0.883883 
C -0.649475 1.118292 -0.331504 1.25 0 1.25 
z
" style="stroke: #174a75"/>
    </defs>
    <g clip-path="url(#p301b18f506)">
     <use xlink:href="#m536fed7bf6" x="104.465455" y="209.248124" style="fill: #174a75; stroke: #174a75"/>
     <use xlink:href="#m536fed7bf6" x="154.958961" y="208.137418" style="fill: #174a75; stroke: #174a75"/>
     <use xlink:href="#m536fed7bf6" x="205.452468" y="199.930463" style="fill: #174a75; stroke: #174a75"/>
     <use xlink:href="#m536fed7bf6" x="255.945974" y="203.231323" style="fill: #174a75; stroke: #174a75"/>
     <use xlink:href="#m536fed7bf6" x="306.439481" y="213.556044" style="fill: #174a75; stroke: #174a75"/>
     <use xlink:href="#m536fed7bf6" x="356.932987" y="205.979259" style="fill: #174a75; stroke: #174a75"/>
     <use xlink:href="#m536fed7bf6" x="407.426494" y="218.654595" style="fill: #174a75; stroke: #174a75"/>
     <use xlink:href="#m536fed7bf6" x="457.92" y="208.809131" style="fill: #174a75; stroke: #174a75"/>
     <use xlink:href="#m536fed7bf6" x="508.413506" y="218.099101" style="fill: #174a75; stroke: #174a75"/>
     <use xlink:href="#m536fed7bf6" x="558.907013" y="212.947891" style="fill: #174a75; stroke: #174a75"/>
     <use xlink:href="#m536fed7bf6" x="609.400519" y="217.972362" style="fill: #174a75; stroke: #174a75"/>
     <use xlink:href="#m536fed7bf6" x="659.894026" y="218.69757" style="fill: #174a75; stroke: #174a75"/>
     <use xlink:href="#m536fed7bf6" x="710.387532" y="215.183718" style="fill: #174a75; stroke: #174a75"/>
     <use xlink:href="#m536fed7bf6" x="760.881039" y="198.136798" style="fill: #174a75; stroke: #174a75"/>
     <use xlink:href="#m536fed7bf6" x="811.374545" y="194.748811" style="fill: #174a75; stroke: #174a75"/>
    </g>
   </g>
   <g id="line2d_23">
    <path d="M 104.465455 213.257313 
L 154.958961 201.066068 
L 205.452468 199.969655 
L 255.945974 203.424738 
L 306.439481 216.820594 
L 356.932987 207.71025 
L 407.426494 218.203229 
L 457.92 213.672899 
L 508.413506 219.698254 
L 558.907013 212.864007 
L 609.400519 219.078008 
L 659.894026 218.268087 
L 710.387532 215.311327 
L 760.881039 202.133014 
L 811.374545 196.834767 
" clip-path="url(#p301b18f506)" style="fill: none; stroke: #8665a0; stroke-width: 1.6; stroke-linecap: square"/>
    <defs>
     <path id="mf2bb545fb7" d="M 0 1.25 
C 0.331504 1.25 0.649475 1.118292 0.883883 0.883883 
C 1.118292 0.649475 1.25 0.331504 1.25 0 
C 1.25 -0.331504 1.118292 -0.649475 0.883883 -0.883883 
C 0.649475 -1.118292 0.331504 -1.25 0 -1.25 
C -0.331504 -1.25 -0.649475 -1.118292 -0.883883 -0.883883 
C -1.118292 -0.649475 -1.25 -0.331504 -1.25 0 
C -1.25 0.331504 -1.118292 0.649475 -0.883883 0.883883 
C -0.649475 1.118292 -0.331504 1.25 0 1.25 
z
" style="stroke: #8665a0"/>
    </defs>
    <g clip-path="url(#p301b18f506)">
     <use xlink:href="#mf2bb545fb7" x="104.465455" y="213.257313" style="fill: #8665a0; stroke: #8665a0"/>
     <use xlink:href="#mf2bb545fb7" x="154.958961" y="201.066068" style="fill: #8665a0; stroke: #8665a0"/>
     <use xlink:href="#mf2bb545fb7" x="205.452468" y="199.969655" style="fill: #8665a0; stroke: #8665a0"/>
     <use xlink:href="#mf2bb545fb7" x="255.945974" y="203.424738" style="fill: #8665a0; stroke: #8665a0"/>
     <use xlink:href="#mf2bb545fb7" x="306.439481" y="216.820594" style="fill: #8665a0; stroke: #8665a0"/>
     <use xlink:href="#mf2bb545fb7" x="356.932987" y="207.71025" style="fill: #8665a0; stroke: #8665a0"/>
     <use xlink:href="#mf2bb545fb7" x="407.426494" y="218.203229" style="fill: #8665a0; stroke: #8665a0"/>
     <use xlink:href="#mf2bb545fb7" x="457.92" y="213.672899" style="fill: #8665a0; stroke: #8665a0"/>
     <use xlink:href="#mf2bb545fb7" x="508.413506" y="219.698254" style="fill: #8665a0; stroke: #8665a0"/>
     <use xlink:href="#mf2bb545fb7" x="558.907013" y="212.864007" style="fill: #8665a0; stroke: #8665a0"/>
     <use xlink:href="#mf2bb545fb7" x="609.400519" y="219.078008" style="fill: #8665a0; stroke: #8665a0"/>
     <use xlink:href="#mf2bb545fb7" x="659.894026" y="218.268087" style="fill: #8665a0; stroke: #8665a0"/>
     <use xlink:href="#mf2bb545fb7" x="710.387532" y="215.311327" style="fill: #8665a0; stroke: #8665a0"/>
     <use xlink:href="#mf2bb545fb7" x="760.881039" y="202.133014" style="fill: #8665a0; stroke: #8665a0"/>
     <use xlink:href="#mf2bb545fb7" x="811.374545" y="196.834767" style="fill: #8665a0; stroke: #8665a0"/>
    </g>
   </g>
   <g id="line2d_24">
    <path d="M 104.465455 212.59716 
L 154.958961 197.556807 
L 205.452468 203.819265 
L 255.945974 205.915211 
L 306.439481 220.070645 
L 356.932987 211.409017 
L 407.426494 216.749171 
L 457.92 211.71868 
L 508.413506 219.294759 
L 558.907013 215.549563 
L 609.400519 220.085031 
L 659.894026 217.371193 
L 710.387532 215.112155 
L 760.881039 201.311691 
L 811.374545 194.138457 
" clip-path="url(#p301b18f506)" style="fill: none; stroke: #27856f; stroke-width: 1.6; stroke-linecap: square"/>
    <defs>
     <path id="ma7d7e96022" d="M 0 1.25 
C 0.331504 1.25 0.649475 1.118292 0.883883 0.883883 
C 1.118292 0.649475 1.25 0.331504 1.25 0 
C 1.25 -0.331504 1.118292 -0.649475 0.883883 -0.883883 
C 0.649475 -1.118292 0.331504 -1.25 0 -1.25 
C -0.331504 -1.25 -0.649475 -1.118292 -0.883883 -0.883883 
C -1.118292 -0.649475 -1.25 -0.331504 -1.25 0 
C -1.25 0.331504 -1.118292 0.649475 -0.883883 0.883883 
C -0.649475 1.118292 -0.331504 1.25 0 1.25 
z
" style="stroke: #27856f"/>
    </defs>
    <g clip-path="url(#p301b18f506)">
     <use xlink:href="#ma7d7e96022" x="104.465455" y="212.59716" style="fill: #27856f; stroke: #27856f"/>
     <use xlink:href="#ma7d7e96022" x="154.958961" y="197.556807" style="fill: #27856f; stroke: #27856f"/>
     <use xlink:href="#ma7d7e96022" x="205.452468" y="203.819265" style="fill: #27856f; stroke: #27856f"/>
     <use xlink:href="#ma7d7e96022" x="255.945974" y="205.915211" style="fill: #27856f; stroke: #27856f"/>
     <use xlink:href="#ma7d7e96022" x="306.439481" y="220.070645" style="fill: #27856f; stroke: #27856f"/>
     <use xlink:href="#ma7d7e96022" x="356.932987" y="211.409017" style="fill: #27856f; stroke: #27856f"/>
     <use xlink:href="#ma7d7e96022" x="407.426494" y="216.749171" style="fill: #27856f; stroke: #27856f"/>
     <use xlink:href="#ma7d7e96022" x="457.92" y="211.71868" style="fill: #27856f; stroke: #27856f"/>
     <use xlink:href="#ma7d7e96022" x="508.413506" y="219.294759" style="fill: #27856f; stroke: #27856f"/>
     <use xlink:href="#ma7d7e96022" x="558.907013" y="215.549563" style="fill: #27856f; stroke: #27856f"/>
     <use xlink:href="#ma7d7e96022" x="609.400519" y="220.085031" style="fill: #27856f; stroke: #27856f"/>
     <use xlink:href="#ma7d7e96022" x="659.894026" y="217.371193" style="fill: #27856f; stroke: #27856f"/>
     <use xlink:href="#ma7d7e96022" x="710.387532" y="215.112155" style="fill: #27856f; stroke: #27856f"/>
     <use xlink:href="#ma7d7e96022" x="760.881039" y="201.311691" style="fill: #27856f; stroke: #27856f"/>
     <use xlink:href="#ma7d7e96022" x="811.374545" y="194.138457" style="fill: #27856f; stroke: #27856f"/>
    </g>
   </g>
   <g id="line2d_25">
    <path d="M 104.465455 216.939969 
L 154.958961 214.530614 
L 205.452468 207.242198 
L 255.945974 209.431879 
L 306.439481 223.501461 
L 356.932987 213.178163 
L 407.426494 214.812361 
L 457.92 212.890643 
L 508.413506 216.305656 
L 558.907013 216.506282 
L 609.400519 222.940284 
L 659.894026 221.738792 
L 710.387532 212.135144 
L 760.881039 203.730228 
L 811.374545 201.5661 
" clip-path="url(#p301b18f506)" style="fill: none; stroke: #2e75b6; stroke-width: 1.6; stroke-linecap: square"/>
    <defs>
     <path id="m518d12fda1" d="M 0 1.25 
C 0.331504 1.25 0.649475 1.118292 0.883883 0.883883 
C 1.118292 0.649475 1.25 0.331504 1.25 0 
C 1.25 -0.331504 1.118292 -0.649475 0.883883 -0.883883 
C 0.649475 -1.118292 0.331504 -1.25 0 -1.25 
C -0.331504 -1.25 -0.649475 -1.118292 -0.883883 -0.883883 
C -1.118292 -0.649475 -1.25 -0.331504 -1.25 0 
C -1.25 0.331504 -1.118292 0.649475 -0.883883 0.883883 
C -0.649475 1.118292 -0.331504 1.25 0 1.25 
z
" style="stroke: #2e75b6"/>
    </defs>
    <g clip-path="url(#p301b18f506)">
     <use xlink:href="#m518d12fda1" x="104.465455" y="216.939969" style="fill: #2e75b6; stroke: #2e75b6"/>
     <use xlink:href="#m518d12fda1" x="154.958961" y="214.530614" style="fill: #2e75b6; stroke: #2e75b6"/>
     <use xlink:href="#m518d12fda1" x="205.452468" y="207.242198" style="fill: #2e75b6; stroke: #2e75b6"/>
     <use xlink:href="#m518d12fda1" x="255.945974" y="209.431879" style="fill: #2e75b6; stroke: #2e75b6"/>
     <use xlink:href="#m518d12fda1" x="306.439481" y="223.501461" style="fill: #2e75b6; stroke: #2e75b6"/>
     <use xlink:href="#m518d12fda1" x="356.932987" y="213.178163" style="fill: #2e75b6; stroke: #2e75b6"/>
     <use xlink:href="#m518d12fda1" x="407.426494" y="214.812361" style="fill: #2e75b6; stroke: #2e75b6"/>
     <use xlink:href="#m518d12fda1" x="457.92" y="212.890643" style="fill: #2e75b6; stroke: #2e75b6"/>
     <use xlink:href="#m518d12fda1" x="508.413506" y="216.305656" style="fill: #2e75b6; stroke: #2e75b6"/>
     <use xlink:href="#m518d12fda1" x="558.907013" y="216.506282" style="fill: #2e75b6; stroke: #2e75b6"/>
     <use xlink:href="#m518d12fda1" x="609.400519" y="222.940284" style="fill: #2e75b6; stroke: #2e75b6"/>
     <use xlink:href="#m518d12fda1" x="659.894026" y="221.738792" style="fill: #2e75b6; stroke: #2e75b6"/>
     <use xlink:href="#m518d12fda1" x="710.387532" y="212.135144" style="fill: #2e75b6; stroke: #2e75b6"/>
     <use xlink:href="#m518d12fda1" x="760.881039" y="203.730228" style="fill: #2e75b6; stroke: #2e75b6"/>
     <use xlink:href="#m518d12fda1" x="811.374545" y="201.5661" style="fill: #2e75b6; stroke: #2e75b6"/>
    </g>
   </g>
   <g id="line2d_26">
    <path d="M 104.465455 214.48975 
L 154.958961 210.554443 
L 205.452468 202.752483 
L 255.945974 205.228862 
L 306.439481 222.359344 
L 356.932987 210.469455 
L 407.426494 217.115036 
L 457.92 212.368036 
L 508.413506 218.387717 
L 558.907013 213.802024 
L 609.400519 216.868719 
L 659.894026 219.802468 
L 710.387532 216.266396 
L 760.881039 201.346143 
L 811.374545 195.27147 
" clip-path="url(#p301b18f506)" style="fill: none; stroke: #b8860b; stroke-width: 1.6; stroke-linecap: square"/>
    <defs>
     <path id="mb0655a6230" d="M 0 1.25 
C 0.331504 1.25 0.649475 1.118292 0.883883 0.883883 
C 1.118292 0.649475 1.25 0.331504 1.25 0 
C 1.25 -0.331504 1.118292 -0.649475 0.883883 -0.883883 
C 0.649475 -1.118292 0.331504 -1.25 0 -1.25 
C -0.331504 -1.25 -0.649475 -1.118292 -0.883883 -0.883883 
C -1.118292 -0.649475 -1.25 -0.331504 -1.25 0 
C -1.25 0.331504 -1.118292 0.649475 -0.883883 0.883883 
C -0.649475 1.118292 -0.331504 1.25 0 1.25 
z
" style="stroke: #b8860b"/>
    </defs>
    <g clip-path="url(#p301b18f506)">
     <use xlink:href="#mb0655a6230" x="104.465455" y="214.48975" style="fill: #b8860b; stroke: #b8860b"/>
     <use xlink:href="#mb0655a6230" x="154.958961" y="210.554443" style="fill: #b8860b; stroke: #b8860b"/>
     <use xlink:href="#mb0655a6230" x="205.452468" y="202.752483" style="fill: #b8860b; stroke: #b8860b"/>
     <use xlink:href="#mb0655a6230" x="255.945974" y="205.228862" style="fill: #b8860b; stroke: #b8860b"/>
     <use xlink:href="#mb0655a6230" x="306.439481" y="222.359344" style="fill: #b8860b; stroke: #b8860b"/>
     <use xlink:href="#mb0655a6230" x="356.932987" y="210.469455" style="fill: #b8860b; stroke: #b8860b"/>
     <use xlink:href="#mb0655a6230" x="407.426494" y="217.115036" style="fill: #b8860b; stroke: #b8860b"/>
     <use xlink:href="#mb0655a6230" x="457.92" y="212.368036" style="fill: #b8860b; stroke: #b8860b"/>
     <use xlink:href="#mb0655a6230" x="508.413506" y="218.387717" style="fill: #b8860b; stroke: #b8860b"/>
     <use xlink:href="#mb0655a6230" x="558.907013" y="213.802024" style="fill: #b8860b; stroke: #b8860b"/>
     <use xlink:href="#mb0655a6230" x="609.400519" y="216.868719" style="fill: #b8860b; stroke: #b8860b"/>
     <use xlink:href="#mb0655a6230" x="659.894026" y="219.802468" style="fill: #b8860b; stroke: #b8860b"/>
     <use xlink:href="#mb0655a6230" x="710.387532" y="216.266396" style="fill: #b8860b; stroke: #b8860b"/>
     <use xlink:href="#mb0655a6230" x="760.881039" y="201.346143" style="fill: #b8860b; stroke: #b8860b"/>
     <use xlink:href="#mb0655a6230" x="811.374545" y="195.27147" style="fill: #b8860b; stroke: #b8860b"/>
    </g>
   </g>
   <g id="line2d_27">
    <path d="M 104.465455 211.545819 
L 154.958961 206.392081 
L 205.452468 200.611571 
L 255.945974 206.52612 
L 306.439481 217.328154 
L 356.932987 208.579104 
L 407.426494 211.608794 
L 457.92 213.671115 
L 508.413506 217.5766 
L 558.907013 211.557448 
L 609.400519 214.640004 
L 659.894026 219.506676 
L 710.387532 216.643035 
L 760.881039 199.943599 
L 811.374545 198.413369 
" clip-path="url(#p301b18f506)" style="fill: none; stroke: #c15c87; stroke-width: 1.6; stroke-linecap: square"/>
    <defs>
     <path id="me0766834f0" d="M 0 1.25 
C 0.331504 1.25 0.649475 1.118292 0.883883 0.883883 
C 1.118292 0.649475 1.25 0.331504 1.25 0 
C 1.25 -0.331504 1.118292 -0.649475 0.883883 -0.883883 
C 0.649475 -1.118292 0.331504 -1.25 0 -1.25 
C -0.331504 -1.25 -0.649475 -1.118292 -0.883883 -0.883883 
C -1.118292 -0.649475 -1.25 -0.331504 -1.25 0 
C -1.25 0.331504 -1.118292 0.649475 -0.883883 0.883883 
C -0.649475 1.118292 -0.331504 1.25 0 1.25 
z
" style="stroke: #c15c87"/>
    </defs>
    <g clip-path="url(#p301b18f506)">
     <use xlink:href="#me0766834f0" x="104.465455" y="211.545819" style="fill: #c15c87; stroke: #c15c87"/>
     <use xlink:href="#me0766834f0" x="154.958961" y="206.392081" style="fill: #c15c87; stroke: #c15c87"/>
     <use xlink:href="#me0766834f0" x="205.452468" y="200.611571" style="fill: #c15c87; stroke: #c15c87"/>
     <use xlink:href="#me0766834f0" x="255.945974" y="206.52612" style="fill: #c15c87; stroke: #c15c87"/>
     <use xlink:href="#me0766834f0" x="306.439481" y="217.328154" style="fill: #c15c87; stroke: #c15c87"/>
     <use xlink:href="#me0766834f0" x="356.932987" y="208.579104" style="fill: #c15c87; stroke: #c15c87"/>
     <use xlink:href="#me0766834f0" x="407.426494" y="211.608794" style="fill: #c15c87; stroke: #c15c87"/>
     <use xlink:href="#me0766834f0" x="457.92" y="213.671115" style="fill: #c15c87; stroke: #c15c87"/>
     <use xlink:href="#me0766834f0" x="508.413506" y="217.5766" style="fill: #c15c87; stroke: #c15c87"/>
     <use xlink:href="#me0766834f0" x="558.907013" y="211.557448" style="fill: #c15c87; stroke: #c15c87"/>
     <use xlink:href="#me0766834f0" x="609.400519" y="214.640004" style="fill: #c15c87; stroke: #c15c87"/>
     <use xlink:href="#me0766834f0" x="659.894026" y="219.506676" style="fill: #c15c87; stroke: #c15c87"/>
     <use xlink:href="#me0766834f0" x="710.387532" y="216.643035" style="fill: #c15c87; stroke: #c15c87"/>
     <use xlink:href="#me0766834f0" x="760.881039" y="199.943599" style="fill: #c15c87; stroke: #c15c87"/>
     <use xlink:href="#me0766834f0" x="811.374545" y="198.413369" style="fill: #c15c87; stroke: #c15c87"/>
    </g>
   </g>
   <g id="line2d_28">
    <path d="M 104.465455 213.402392 
L 154.958961 208.304753 
L 205.452468 202.466444 
L 255.945974 206.54262 
L 306.439481 214.254143 
L 356.932987 207.229639 
L 407.426494 215.20459 
L 457.92 210.28936 
L 508.413506 217.523596 
L 558.907013 217.67514 
L 609.400519 221.593621 
L 659.894026 218.492515 
L 710.387532 216.114039 
L 760.881039 206.969459 
L 811.374545 197.723698 
" clip-path="url(#p301b18f506)" style="fill: none; stroke: #4d6779; stroke-width: 1.6; stroke-linecap: square"/>
    <defs>
     <path id="m59e39ca629" d="M 0 1.25 
C 0.331504 1.25 0.649475 1.118292 0.883883 0.883883 
C 1.118292 0.649475 1.25 0.331504 1.25 0 
C 1.25 -0.331504 1.118292 -0.649475 0.883883 -0.883883 
C 0.649475 -1.118292 0.331504 -1.25 0 -1.25 
C -0.331504 -1.25 -0.649475 -1.118292 -0.883883 -0.883883 
C -1.118292 -0.649475 -1.25 -0.331504 -1.25 0 
C -1.25 0.331504 -1.118292 0.649475 -0.883883 0.883883 
C -0.649475 1.118292 -0.331504 1.25 0 1.25 
z
" style="stroke: #4d6779"/>
    </defs>
    <g clip-path="url(#p301b18f506)">
     <use xlink:href="#m59e39ca629" x="104.465455" y="213.402392" style="fill: #4d6779; stroke: #4d6779"/>
     <use xlink:href="#m59e39ca629" x="154.958961" y="208.304753" style="fill: #4d6779; stroke: #4d6779"/>
     <use xlink:href="#m59e39ca629" x="205.452468" y="202.466444" style="fill: #4d6779; stroke: #4d6779"/>
     <use xlink:href="#m59e39ca629" x="255.945974" y="206.54262" style="fill: #4d6779; stroke: #4d6779"/>
     <use xlink:href="#m59e39ca629" x="306.439481" y="214.254143" style="fill: #4d6779; stroke: #4d6779"/>
     <use xlink:href="#m59e39ca629" x="356.932987" y="207.229639" style="fill: #4d6779; stroke: #4d6779"/>
     <use xlink:href="#m59e39ca629" x="407.426494" y="215.20459" style="fill: #4d6779; stroke: #4d6779"/>
     <use xlink:href="#m59e39ca629" x="457.92" y="210.28936" style="fill: #4d6779; stroke: #4d6779"/>
     <use xlink:href="#m59e39ca629" x="508.413506" y="217.523596" style="fill: #4d6779; stroke: #4d6779"/>
     <use xlink:href="#m59e39ca629" x="558.907013" y="217.67514" style="fill: #4d6779; stroke: #4d6779"/>
     <use xlink:href="#m59e39ca629" x="609.400519" y="221.593621" style="fill: #4d6779; stroke: #4d6779"/>
     <use xlink:href="#m59e39ca629" x="659.894026" y="218.492515" style="fill: #4d6779; stroke: #4d6779"/>
     <use xlink:href="#m59e39ca629" x="710.387532" y="216.114039" style="fill: #4d6779; stroke: #4d6779"/>
     <use xlink:href="#m59e39ca629" x="760.881039" y="206.969459" style="fill: #4d6779; stroke: #4d6779"/>
     <use xlink:href="#m59e39ca629" x="811.374545" y="197.723698" style="fill: #4d6779; stroke: #4d6779"/>
    </g>
   </g>
   <g id="line2d_29">
    <path d="M 104.465455 219.417698 
L 154.958961 215.953021 
L 205.452468 209.277397 
L 255.945974 211.105595 
L 306.439481 229.315745 
L 356.932987 219.39838 
L 407.426494 216.01165 
L 457.92 214.663771 
L 508.413506 218.453717 
L 558.907013 215.987959 
L 609.400519 219.449435 
L 659.894026 220.766544 
L 710.387532 213.382439 
L 760.881039 208.35025 
L 811.374545 206.88347 
" clip-path="url(#p301b18f506)" style="fill: none; stroke-dasharray: 5.92,2.56; stroke-dashoffset: 0; stroke: #b8860b; stroke-width: 1.6"/>
    <g clip-path="url(#p301b18f506)">
     <use xlink:href="#mb0655a6230" x="104.465455" y="219.417698" style="fill: #b8860b; stroke: #b8860b"/>
     <use xlink:href="#mb0655a6230" x="154.958961" y="215.953021" style="fill: #b8860b; stroke: #b8860b"/>
     <use xlink:href="#mb0655a6230" x="205.452468" y="209.277397" style="fill: #b8860b; stroke: #b8860b"/>
     <use xlink:href="#mb0655a6230" x="255.945974" y="211.105595" style="fill: #b8860b; stroke: #b8860b"/>
     <use xlink:href="#mb0655a6230" x="306.439481" y="229.315745" style="fill: #b8860b; stroke: #b8860b"/>
     <use xlink:href="#mb0655a6230" x="356.932987" y="219.39838" style="fill: #b8860b; stroke: #b8860b"/>
     <use xlink:href="#mb0655a6230" x="407.426494" y="216.01165" style="fill: #b8860b; stroke: #b8860b"/>
     <use xlink:href="#mb0655a6230" x="457.92" y="214.663771" style="fill: #b8860b; stroke: #b8860b"/>
     <use xlink:href="#mb0655a6230" x="508.413506" y="218.453717" style="fill: #b8860b; stroke: #b8860b"/>
     <use xlink:href="#mb0655a6230" x="558.907013" y="215.987959" style="fill: #b8860b; stroke: #b8860b"/>
     <use xlink:href="#mb0655a6230" x="609.400519" y="219.449435" style="fill: #b8860b; stroke: #b8860b"/>
     <use xlink:href="#mb0655a6230" x="659.894026" y="220.766544" style="fill: #b8860b; stroke: #b8860b"/>
     <use xlink:href="#mb0655a6230" x="710.387532" y="213.382439" style="fill: #b8860b; stroke: #b8860b"/>
     <use xlink:href="#mb0655a6230" x="760.881039" y="208.35025" style="fill: #b8860b; stroke: #b8860b"/>
     <use xlink:href="#mb0655a6230" x="811.374545" y="206.88347" style="fill: #b8860b; stroke: #b8860b"/>
    </g>
   </g>
   <g id="line2d_30">
    <path d="M 104.465455 212.404704 
L 154.958961 213.404143 
L 205.452468 211.447784 
L 255.945974 206.657888 
L 306.439481 224.998674 
L 356.932987 214.319193 
L 407.426494 214.427082 
L 457.92 212.550055 
L 508.413506 213.616558 
L 558.907013 213.915694 
L 609.400519 214.550941 
L 659.894026 219.891445 
L 710.387532 213.580902 
L 760.881039 204.201706 
L 811.374545 202.61572 
" clip-path="url(#p301b18f506)" style="fill: none; stroke-dasharray: 5.92,2.56; stroke-dashoffset: 0; stroke: #c15c87; stroke-width: 1.6"/>
    <g clip-path="url(#p301b18f506)">
     <use xlink:href="#me0766834f0" x="104.465455" y="212.404704" style="fill: #c15c87; stroke: #c15c87"/>
     <use xlink:href="#me0766834f0" x="154.958961" y="213.404143" style="fill: #c15c87; stroke: #c15c87"/>
     <use xlink:href="#me0766834f0" x="205.452468" y="211.447784" style="fill: #c15c87; stroke: #c15c87"/>
     <use xlink:href="#me0766834f0" x="255.945974" y="206.657888" style="fill: #c15c87; stroke: #c15c87"/>
     <use xlink:href="#me0766834f0" x="306.439481" y="224.998674" style="fill: #c15c87; stroke: #c15c87"/>
     <use xlink:href="#me0766834f0" x="356.932987" y="214.319193" style="fill: #c15c87; stroke: #c15c87"/>
     <use xlink:href="#me0766834f0" x="407.426494" y="214.427082" style="fill: #c15c87; stroke: #c15c87"/>
     <use xlink:href="#me0766834f0" x="457.92" y="212.550055" style="fill: #c15c87; stroke: #c15c87"/>
     <use xlink:href="#me0766834f0" x="508.413506" y="213.616558" style="fill: #c15c87; stroke: #c15c87"/>
     <use xlink:href="#me0766834f0" x="558.907013" y="213.915694" style="fill: #c15c87; stroke: #c15c87"/>
     <use xlink:href="#me0766834f0" x="609.400519" y="214.550941" style="fill: #c15c87; stroke: #c15c87"/>
     <use xlink:href="#me0766834f0" x="659.894026" y="219.891445" style="fill: #c15c87; stroke: #c15c87"/>
     <use xlink:href="#me0766834f0" x="710.387532" y="213.580902" style="fill: #c15c87; stroke: #c15c87"/>
     <use xlink:href="#me0766834f0" x="760.881039" y="204.201706" style="fill: #c15c87; stroke: #c15c87"/>
     <use xlink:href="#me0766834f0" x="811.374545" y="202.61572" style="fill: #c15c87; stroke: #c15c87"/>
    </g>
   </g>
   <g id="line2d_31">
    <path d="M 104.465455 218.21409 
L 154.958961 219.054174 
L 205.452468 213.919488 
L 255.945974 210.964186 
L 306.439481 227.988133 
L 356.932987 219.105542 
L 407.426494 218.325262 
L 457.92 215.367805 
L 508.413506 216.044232 
L 558.907013 217.713356 
L 609.400519 217.809 
L 659.894026 220.245087 
L 710.387532 215.193253 
L 760.881039 208.647692 
L 811.374545 206.023918 
" clip-path="url(#p301b18f506)" style="fill: none; stroke-dasharray: 5.55,2.4; stroke-dashoffset: 0; stroke: #000000; stroke-width: 1.5"/>
   </g>
   <g id="patch_3">
    <path d="M 69.12 367.2 
L 69.12 82.08 
" style="fill: none; stroke: #000000; stroke-width: 0.8; stroke-linejoin: miter; stroke-linecap: square"/>
   </g>
   <g id="patch_4">
    <path d="M 69.12 367.2 
L 846.72 367.2 
" style="fill: none; stroke: #000000; stroke-width: 0.8; stroke-linejoin: miter; stroke-linecap: square"/>
   </g>
   <g id="legend_1">
    <g id="line2d_32">
     <path d="M 76.32 331.276875 
L 84.32 331.276875 
L 92.32 331.276875 
" style="fill: none; stroke: #737373; stroke-width: 1.6; stroke-linecap: square"/>
     <g>
      <use xlink:href="#made9ba3238" x="84.32" y="331.276875" style="fill: #737373; stroke: #737373"/>
     </g>
    </g>
    <g id="text_17">
     <text style="font-size: 8px; font-family: 'DejaVu Sans'; text-anchor: start" x="98.72" y="334.076875" transform="rotate(-0 98.72 334.076875)">Majority</text>
    </g>
    <g id="line2d_33">
     <path d="M 76.32 343.2775 
L 84.32 343.2775 
L 92.32 343.2775 
" style="fill: none; stroke: #b65b25; stroke-width: 1.6; stroke-linecap: square"/>
     <g>
      <use xlink:href="#mc2ad2986f4" x="84.32" y="343.2775" style="fill: #b65b25; stroke: #b65b25"/>
     </g>
    </g>
    <g id="text_18">
     <text style="font-size: 8px; font-family: 'DejaVu Sans'; text-anchor: start" x="98.72" y="346.0775" transform="rotate(-0 98.72 346.0775)">Persistence</text>
    </g>
    <g id="line2d_34">
     <path d="M 76.32 355.278125 
L 84.32 355.278125 
L 92.32 355.278125 
" style="fill: none; stroke: #174a75; stroke-width: 1.6; stroke-linecap: square"/>
     <g>
      <use xlink:href="#m536fed7bf6" x="84.32" y="355.278125" style="fill: #174a75; stroke: #174a75"/>
     </g>
    </g>
    <g id="text_19">
     <text style="font-size: 8px; font-family: 'DejaVu Sans'; text-anchor: start" x="98.72" y="358.078125" transform="rotate(-0 98.72 358.078125)">Logistic Regression</text>
    </g>
    <g id="line2d_35">
     <path d="M 191.46 331.276875 
L 199.46 331.276875 
L 207.46 331.276875 
" style="fill: none; stroke: #8665a0; stroke-width: 1.6; stroke-linecap: square"/>
     <g>
      <use xlink:href="#mf2bb545fb7" x="199.46" y="331.276875" style="fill: #8665a0; stroke: #8665a0"/>
     </g>
    </g>
    <g id="text_20">
     <text style="font-size: 8px; font-family: 'DejaVu Sans'; text-anchor: start" x="213.86" y="334.076875" transform="rotate(-0 213.86 334.076875)">MLP</text>
    </g>
    <g id="line2d_36">
     <path d="M 191.46 343.2775 
L 199.46 343.2775 
L 207.46 343.2775 
" style="fill: none; stroke: #27856f; stroke-width: 1.6; stroke-linecap: square"/>
     <g>
      <use xlink:href="#ma7d7e96022" x="199.46" y="343.2775" style="fill: #27856f; stroke: #27856f"/>
     </g>
    </g>
    <g id="text_21">
     <text style="font-size: 8px; font-family: 'DejaVu Sans'; text-anchor: start" x="213.86" y="346.0775" transform="rotate(-0 213.86 346.0775)">GRU (aligned)</text>
    </g>
    <g id="line2d_37">
     <path d="M 191.46 355.278125 
L 199.46 355.278125 
L 207.46 355.278125 
" style="fill: none; stroke: #2e75b6; stroke-width: 1.6; stroke-linecap: square"/>
     <g>
      <use xlink:href="#m518d12fda1" x="199.46" y="355.278125" style="fill: #2e75b6; stroke: #2e75b6"/>
     </g>
    </g>
    <g id="text_22">
     <text style="font-size: 8px; font-family: 'DejaVu Sans'; text-anchor: start" x="213.86" y="358.078125" transform="rotate(-0 213.86 358.078125)">Static GCN</text>
    </g>
    <g id="line2d_38">
     <path d="M 285.755 331.276875 
L 293.755 331.276875 
L 301.755 331.276875 
" style="fill: none; stroke: #b8860b; stroke-width: 1.6; stroke-linecap: square"/>
     <g>
      <use xlink:href="#mb0655a6230" x="293.755" y="331.276875" style="fill: #b8860b; stroke: #b8860b"/>
     </g>
    </g>
    <g id="text_23">
     <text style="font-size: 8px; font-family: 'DejaVu Sans'; text-anchor: start" x="308.155" y="334.076875" transform="rotate(-0 308.155 334.076875)">GraphSAGE</text>
    </g>
    <g id="line2d_39">
     <path d="M 285.755 343.2775 
L 293.755 343.2775 
L 301.755 343.2775 
" style="fill: none; stroke: #c15c87; stroke-width: 1.6; stroke-linecap: square"/>
     <g>
      <use xlink:href="#me0766834f0" x="293.755" y="343.2775" style="fill: #c15c87; stroke: #c15c87"/>
     </g>
    </g>
    <g id="text_24">
     <text style="font-size: 8px; font-family: 'DejaVu Sans'; text-anchor: start" x="308.155" y="346.0775" transform="rotate(-0 308.155 346.0775)">GAT</text>
    </g>
    <g id="line2d_40">
     <path d="M 285.755 355.278125 
L 293.755 355.278125 
L 301.755 355.278125 
" style="fill: none; stroke: #4d6779; stroke-width: 1.6; stroke-linecap: square"/>
     <g>
      <use xlink:href="#m59e39ca629" x="293.755" y="355.278125" style="fill: #4d6779; stroke: #4d6779"/>
     </g>
    </g>
    <g id="text_25">
     <text style="font-size: 8px; font-family: 'DejaVu Sans'; text-anchor: start" x="308.155" y="358.078125" transform="rotate(-0 308.155 358.078125)">Temporal GCN</text>
    </g>
    <g id="line2d_41">
     <path d="M 381.0975 331.276875 
L 389.0975 331.276875 
L 397.0975 331.276875 
" style="fill: none; stroke-dasharray: 5.92,2.56; stroke-dashoffset: 0; stroke: #b8860b; stroke-width: 1.6"/>
     <g>
      <use xlink:href="#mb0655a6230" x="389.0975" y="331.276875" style="fill: #b8860b; stroke: #b8860b"/>
     </g>
    </g>
    <g id="text_26">
     <text style="font-size: 8px; font-family: 'DejaVu Sans'; text-anchor: start" x="403.4975" y="334.076875" transform="rotate(-0 403.4975 334.076875)">GraphSAGE (reversed)</text>
    </g>
    <g id="line2d_42">
     <path d="M 381.0975 343.2775 
L 389.0975 343.2775 
L 397.0975 343.2775 
" style="fill: none; stroke-dasharray: 5.92,2.56; stroke-dashoffset: 0; stroke: #c15c87; stroke-width: 1.6"/>
     <g>
      <use xlink:href="#me0766834f0" x="389.0975" y="343.2775" style="fill: #c15c87; stroke: #c15c87"/>
     </g>
    </g>
    <g id="text_27">
     <text style="font-size: 8px; font-family: 'DejaVu Sans'; text-anchor: start" x="403.4975" y="346.0775" transform="rotate(-0 403.4975 346.0775)">GAT (reversed)</text>
    </g>
    <g id="line2d_43">
     <path d="M 381.0975 355.278125 
L 389.0975 355.278125 
L 397.0975 355.278125 
" style="fill: none; stroke-dasharray: 5.55,2.4; stroke-dashoffset: 0; stroke: #000000; stroke-width: 1.5"/>
    </g>
    <g id="text_28">
     <text style="font-size: 8px; font-family: 'DejaVu Sans'; text-anchor: start" x="403.4975" y="358.078125" transform="rotate(-0 403.4975 358.078125)">No-skill: class-0 prevalence</text>
    </g>
   </g>
  </g>
  <g id="text_29">
   <text style="font-size: 15px; font-family: 'DejaVu Sans'; text-anchor: middle" x="432" y="42.77707" transform="rotate(-0 432 42.77707)">Weekly graph forecasting: class-0 precision–recall</text>
  </g>
  <g id="text_30">
   <text style="font-size: 10px; font-family: 'DejaVu Sans'; text-anchor: middle; fill: #555555" x="432" y="15.12" transform="rotate(-0 432 15.12)">Neural lines: 10-seed means; GRU is newly aligned to the same completed-week cutoff</text>
  </g>
 </g>
 <defs>
  <clipPath id="p301b18f506">
   <rect x="69.12" y="82.08" width="777.6" height="285.12"/>
  </clipPath>
 </defs>
</svg>
