<?xml version="1.0" encoding="utf-8" standalone="no"?>
<!DOCTYPE svg PUBLIC "-//W3C//DTD SVG 1.1//EN"
  "http://www.w3.org/Graphics/SVG/1.1/DTD/svg11.dtd">
<svg xmlns:xlink="http://www.w3.org/1999/xlink" width="720pt" height="504pt" viewBox="0 0 720 504" xmlns="http://www.w3.org/2000/svg" version="1.1">
 <metadata>
  <rdf:RDF xmlns:dc="http://purl.org/dc/elements/1.1/" xmlns:cc="http://creativecommons.org/ns#" xmlns:rdf="http://www.w3.org/1999/02/22-rdf-syntax-ns#">
   <cc:Work>
    <dc:type rdf:resource="http://purl.org/dc/dcmitype/StillImage"/>
    <dc:date>2026-10-04T21:44:23.004835</dc:date>
    <dc:format>image/svg+xml</dc:format>
    <dc:creator>
     <cc:Agent>
      <dc:title>Matplotlib v3.11.2, https://matplotlib.org/</dc:title>
     </cc:Agent>
    </dc:creator>
   </cc:Work>
  </rdf:RDF>
 </metadata>
 <defs>
  <style type="text/css">*{stroke-linejoin: round; stroke-linecap: butt}</style>
 </defs>
 <g id="figure_1">
  <g id="patch_1">
   <path d="M 0 504 
L 720 504 
L 720 0 
L 0 0 
z
" style="fill: #ffffff"/>
  </g>
  <g id="axes_1">
   <g id="patch_2">
    <path d="M 52.628365 227.998984 
L 716.99976 227.998984 
L 716.99976 38.119939 
L 52.628365 38.119939 
z
" style="fill: #ffffff"/>
   </g>
   <g id="patch_3">
    <path d="M 82.827065 227.998984 
L 96.872972 227.998984 
L 96.872972 38.119939 
L 82.827065 38.119939 
z
" clip-path="url(#p14af324d94)" style="fill: #aaaaaa; opacity: 0.16; stroke: #aaaaaa; stroke-linejoin: miter"/>
   </g>
   <g id="patch_4">
    <path d="M 672.755153 227.998984 
L 686.80106 227.998984 
L 686.80106 38.119939 
L 672.755153 38.119939 
z
" clip-path="url(#p14af324d94)" style="fill: #aaaaaa; opacity: 0.16; stroke: #aaaaaa; stroke-linejoin: miter"/>
   </g>
   <g id="matplotlib.axis_1">
    <g id="xtick_1">
     <g id="line2d_1">
      <defs>
       <path id="m6d19f19c32" d="M 0 0 
L 0 3.5 
" style="stroke: #000000; stroke-width: 0.8"/>
      </defs>
      <g>
       <use xlink:href="#m6d19f19c32" x="58.246728" y="227.998984" style="stroke: #000000; stroke-width: 0.8"/>
      </g>
     </g>
     <g id="text_1">
      <text style="font-size: 10px; font-family: 'DejaVu Sans'; text-anchor: middle" x="58.246728" y="242.596641" transform="rotate(-0 58.246728 242.596641)">Oct</text>
     </g>
    </g>
    <g id="xtick_2">
     <g id="line2d_2">
      <g>
       <use xlink:href="#m6d19f19c32" x="167.102506" y="227.998984" style="stroke: #000000; stroke-width: 0.8"/>
      </g>
     </g>
     <g id="text_2">
      <text style="font-size: 10px; font-family: 'DejaVu Sans'; text-anchor: middle" x="167.102506" y="242.596641" transform="rotate(-0 167.102506 242.596641)">Nov</text>
     </g>
    </g>
    <g id="xtick_3">
     <g id="line2d_3">
      <g>
       <use xlink:href="#m6d19f19c32" x="272.446808" y="227.998984" style="stroke: #000000; stroke-width: 0.8"/>
      </g>
     </g>
     <g id="text_3">
      <text style="font-size: 10px; font-family: 'DejaVu Sans'; text-anchor: middle" x="272.446808" y="242.596641" transform="rotate(-0 272.446808 242.596641)">Dec</text>
     </g>
    </g>
    <g id="xtick_4">
     <g id="line2d_4">
      <g>
       <use xlink:href="#m6d19f19c32" x="381.302586" y="227.998984" style="stroke: #000000; stroke-width: 0.8"/>
      </g>
     </g>
     <g id="text_4">
      <text style="font-size: 10px; font-family: 'DejaVu Sans'; text-anchor: middle" x="381.302586" y="242.596641" transform="rotate(-0 381.302586 242.596641)">2023</text>
     </g>
    </g>
    <g id="xtick_5">
     <g id="line2d_5">
      <g>
       <use xlink:href="#m6d19f19c32" x="490.158364" y="227.998984" style="stroke: #000000; stroke-width: 0.8"/>
      </g>
     </g>
     <g id="text_5">
      <text style="font-size: 10px; font-family: 'DejaVu Sans'; text-anchor: middle" x="490.158364" y="242.597422" transform="rotate(-0 490.158364 242.597422)">Feb</text>
     </g>
    </g>
    <g id="xtick_6">
     <g id="line2d_6">
      <g>
       <use xlink:href="#m6d19f19c32" x="588.479712" y="227.998984" style="stroke: #000000; stroke-width: 0.8"/>
      </g>
     </g>
     <g id="text_6">
      <text style="font-size: 10px; font-family: 'DejaVu Sans'; text-anchor: middle" x="588.479712" y="242.596641" transform="rotate(-0 588.479712 242.596641)">Mar</text>
     </g>
    </g>
    <g id="xtick_7">
     <g id="line2d_7">
      <g>
       <use xlink:href="#m6d19f19c32" x="697.33549" y="227.998984" style="stroke: #000000; stroke-width: 0.8"/>
      </g>
     </g>
     <g id="text_7">
      <text style="font-size: 10px; font-family: 'DejaVu Sans'; text-anchor: middle" x="697.33549" y="242.596641" transform="rotate(-0 697.33549 242.596641)">Apr</text>
     </g>
    </g>
    <g id="text_8">
     <text style="font-size: 10px; font-family: 'DejaVu Sans'; text-anchor: middle" x="384.814062" y="256.598203" transform="rotate(-0 384.814062 256.598203)">Prediction week beginning Monday (UTC)</text>
    </g>
   </g>
   <g id="matplotlib.axis_2">
    <g id="ytick_1">
     <g id="line2d_8">
      <path d="M 52.628365 227.998984 
L 716.99976 227.998984 
" clip-path="url(#p14af324d94)" style="fill: none; stroke: #b0b0b0; stroke-opacity: 0.2; stroke-width: 0.6; stroke-linecap: square"/>
     </g>
     <g id="line2d_9">
      <defs>
       <path id="m1e7b7dda97" d="M 0 0 
L -3.5 0 
" style="stroke: #000000; stroke-width: 0.8"/>
      </defs>
      <g>
       <use xlink:href="#m1e7b7dda97" x="52.628365" y="227.998984" style="stroke: #000000; stroke-width: 0.8"/>
      </g>
     </g>
     <g id="text_9">
      <text style="font-size: 10px; font-family: 'DejaVu Sans'; text-anchor: end" x="45.628365" y="231.797813" transform="rotate(-0 45.628365 231.797813)">0%</text>
     </g>
    </g>
    <g id="ytick_2">
     <g id="line2d_10">
      <path d="M 52.628365 190.023175 
L 716.99976 190.023175 
" clip-path="url(#p14af324d94)" style="fill: none; stroke: #b0b0b0; stroke-opacity: 0.2; stroke-width: 0.6; stroke-linecap: square"/>
     </g>
     <g id="line2d_11">
      <g>
       <use xlink:href="#m1e7b7dda97" x="52.628365" y="190.023175" style="stroke: #000000; stroke-width: 0.8"/>
      </g>
     </g>
     <g id="text_10">
      <text style="font-size: 10px; font-family: 'DejaVu Sans'; text-anchor: end" x="45.628365" y="193.822003" transform="rotate(-0 45.628365 193.822003)">20%</text>
     </g>
    </g>
    <g id="ytick_3">
     <g id="line2d_12">
      <path d="M 52.628365 152.047366 
L 716.99976 152.047366 
" clip-path="url(#p14af324d94)" style="fill: none; stroke: #b0b0b0; stroke-opacity: 0.2; stroke-width: 0.6; stroke-linecap: square"/>
     </g>
     <g id="line2d_13">
      <g>
       <use xlink:href="#m1e7b7dda97" x="52.628365" y="152.047366" style="stroke: #000000; stroke-width: 0.8"/>
      </g>
     </g>
     <g id="text_11">
      <text style="font-size: 10px; font-family: 'DejaVu Sans'; text-anchor: end" x="45.628365" y="155.846194" transform="rotate(-0 45.628365 155.846194)">40%</text>
     </g>
    </g>
    <g id="ytick_4">
     <g id="line2d_14">
      <path d="M 52.628365 114.071557 
L 716.99976 114.071557 
" clip-path="url(#p14af324d94)" style="fill: none; stroke: #b0b0b0; stroke-opacity: 0.2; stroke-width: 0.6; stroke-linecap: square"/>
     </g>
     <g id="line2d_15">
      <g>
       <use xlink:href="#m1e7b7dda97" x="52.628365" y="114.071557" style="stroke: #000000; stroke-width: 0.8"/>
      </g>
     </g>
     <g id="text_12">
      <text style="font-size: 10px; font-family: 'DejaVu Sans'; text-anchor: end" x="45.628365" y="117.870385" transform="rotate(-0 45.628365 117.870385)">60%</text>
     </g>
    </g>
    <g id="ytick_5">
     <g id="line2d_16">
      <path d="M 52.628365 76.095748 
L 716.99976 76.095748 
" clip-path="url(#p14af324d94)" style="fill: none; stroke: #b0b0b0; stroke-opacity: 0.2; stroke-width: 0.6; stroke-linecap: square"/>
     </g>
     <g id="line2d_17">
      <g>
       <use xlink:href="#m1e7b7dda97" x="52.628365" y="76.095748" style="stroke: #000000; stroke-width: 0.8"/>
      </g>
     </g>
     <g id="text_13">
      <text style="font-size: 10px; font-family: 'DejaVu Sans'; text-anchor: end" x="45.628365" y="79.894576" transform="rotate(-0 45.628365 79.894576)">80%</text>
     </g>
    </g>
    <g id="ytick_6">
     <g id="line2d_18">
      <path d="M 52.628365 38.119939 
L 716.99976 38.119939 
" clip-path="url(#p14af324d94)" style="fill: none; stroke: #b0b0b0; stroke-opacity: 0.2; stroke-width: 0.6; stroke-linecap: square"/>
     </g>
     <g id="line2d_19">
      <g>
       <use xlink:href="#m1e7b7dda97" x="52.628365" y="38.119939" style="stroke: #000000; stroke-width: 0.8"/>
      </g>
     </g>
     <g id="text_14">
      <text style="font-size: 10px; font-family: 'DejaVu Sans'; text-anchor: end" x="45.628365" y="41.918767" transform="rotate(-0 45.628365 41.918767)">100%</text>
     </g>
    </g>
    <g id="text_15">
     <text style="font-size: 10px; font-family: 'DejaVu Sans'; text-anchor: middle" x="10.636959" y="133.059462" transform="rotate(-90 10.636959 133.059462)">Share</text>
    </g>
   </g>
   <g id="line2d_20">
    <path d="M 114.430355 111.150341 
L 139.010692 137.070991 
L 163.591029 130.917969 
L 188.171366 135.613888 
L 212.751703 123.546094 
L 237.33204 126.907513 
L 261.912377 132.253523 
L 286.492714 127.427456 
L 311.073051 126.112667 
L 335.653388 128.780051 
L 360.233725 129.339514 
L 384.814062 125.920009 
L 409.3944 123.951891 
L 433.974737 135.289191 
L 458.555074 129.373724 
L 483.135411 128.854087 
L 507.715748 126.884533 
L 532.296085 127.335008 
L 556.876422 128.446581 
L 581.456759 128.510276 
L 606.037096 130.132617 
L 630.617433 126.768288 
L 655.19777 122.409195 
L 679.778107 120.661861 
" clip-path="url(#p14af324d94)" style="fill: none; stroke: #174a75; stroke-width: 1.8; stroke-linecap: square"/>
   </g>
   <g id="line2d_21">
    <path d="M 114.430355 154.968582 
L 139.010692 129.047932 
L 163.591029 135.200955 
L 188.171366 130.505035 
L 212.751703 142.572829 
L 237.33204 139.21141 
L 261.912377 133.8654 
L 286.492714 138.691467 
L 311.073051 140.006256 
L 335.653388 137.338872 
L 360.233725 136.779409 
L 384.814062 140.198914 
L 409.3944 142.167032 
L 433.974737 130.829732 
L 458.555074 136.745199 
L 483.135411 137.264836 
L 507.715748 139.23439 
L 532.296085 138.783915 
L 556.876422 137.672342 
L 581.456759 137.608647 
L 606.037096 135.986306 
L 630.617433 139.350635 
L 655.19777 143.709729 
L 679.778107 145.457062 
" clip-path="url(#p14af324d94)" style="fill: none; stroke: #b65b25; stroke-width: 1.8; stroke-linecap: square"/>
   </g>
   <g id="patch_5">
    <path d="M 52.628365 227.998984 
L 52.628365 38.119939 
" style="fill: none; stroke: #000000; stroke-width: 0.8; stroke-linejoin: miter; stroke-linecap: square"/>
   </g>
   <g id="patch_6">
    <path d="M 52.628365 227.998984 
L 716.99976 227.998984 
" style="fill: none; stroke: #000000; stroke-width: 0.8; stroke-linejoin: miter; stroke-linecap: square"/>
   </g>
   <g id="text_16">
    <text style="font-size: 8px; font-family: 'DejaVu Sans'; text-anchor: middle; fill: #666666" x="89.850018" y="35.271753" transform="rotate(-0 89.850018 35.271753)">Partial</text>
   </g>
   <g id="text_17">
    <text style="font-size: 8px; font-family: 'DejaVu Sans'; text-anchor: middle; fill: #666666" x="679.778107" y="35.271753" transform="rotate(-0 679.778107 35.271753)">Partial</text>
   </g>
   <g id="text_18">
    <text style="font-size: 12px; font-family: 'DejaVu Sans'; text-anchor: middle" x="384.814062" y="32.119939" transform="rotate(-0 384.814062 32.119939)">a  Orientation class balance</text>
   </g>
   <g id="legend_1">
    <g id="line2d_22">
     <path d="M 352.889844 198.095859 
L 362.889844 198.095859 
L 372.889844 198.095859 
" style="fill: none; stroke: #174a75; stroke-width: 1.8; stroke-linecap: square"/>
    </g>
    <g id="text_19">
     <text style="font-size: 10px; font-family: 'DejaVu Sans'; text-anchor: start" x="380.889844" y="201.595859" transform="rotate(-0 380.889844 201.595859)">Class 0</text>
    </g>
    <g id="line2d_23">
     <path d="M 352.889844 213.096641 
L 362.889844 213.096641 
L 372.889844 213.096641 
" style="fill: none; stroke: #b65b25; stroke-width: 1.8; stroke-linecap: square"/>
    </g>
    <g id="text_20">
     <text style="font-size: 10px; font-family: 'DejaVu Sans'; text-anchor: start" x="380.889844" y="216.596641" transform="rotate(-0 380.889844 216.596641)">Class 1</text>
    </g>
   </g>
  </g>
  <g id="axes_2">
   <g id="patch_7">
    <path d="M 52.628365 469.998198 
L 716.99976 469.998198 
L 716.99976 280.119152 
L 52.628365 280.119152 
z
" style="fill: #ffffff"/>
   </g>
   <g id="patch_8">
    <path d="M 82.827065 469.998198 
L 96.872972 469.998198 
L 96.872972 280.119152 
L 82.827065 280.119152 
z
" clip-path="url(#p516b98375b)" style="fill: #aaaaaa; opacity: 0.16; stroke: #aaaaaa; stroke-linejoin: miter"/>
   </g>
   <g id="patch_9">
    <path d="M 672.755153 469.998198 
L 686.80106 469.998198 
L 686.80106 280.119152 
L 672.755153 280.119152 
z
" clip-path="url(#p516b98375b)" style="fill: #aaaaaa; opacity: 0.16; stroke: #aaaaaa; stroke-linejoin: miter"/>
   </g>
   <g id="matplotlib.axis_3">
    <g id="xtick_8">
     <g id="line2d_24">
      <g>
       <use xlink:href="#m6d19f19c32" x="58.246728" y="469.998198" style="stroke: #000000; stroke-width: 0.8"/>
      </g>
     </g>
     <g id="text_21">
      <text style="font-size: 10px; font-family: 'DejaVu Sans'; text-anchor: middle" x="58.246728" y="484.595854" transform="rotate(-0 58.246728 484.595854)">Oct</text>
     </g>
    </g>
    <g id="xtick_9">
     <g id="line2d_25">
      <g>
       <use xlink:href="#m6d19f19c32" x="167.102506" y="469.998198" style="stroke: #000000; stroke-width: 0.8"/>
      </g>
     </g>
     <g id="text_22">
      <text style="font-size: 10px; font-family: 'DejaVu Sans'; text-anchor: middle" x="167.102506" y="484.595854" transform="rotate(-0 167.102506 484.595854)">Nov</text>
     </g>
    </g>
    <g id="xtick_10">
     <g id="line2d_26">
      <g>
       <use xlink:href="#m6d19f19c32" x="272.446808" y="469.998198" style="stroke: #000000; stroke-width: 0.8"/>
      </g>
     </g>
     <g id="text_23">
      <text style="font-size: 10px; font-family: 'DejaVu Sans'; text-anchor: middle" x="272.446808" y="484.595854" transform="rotate(-0 272.446808 484.595854)">Dec</text>
     </g>
    </g>
    <g id="xtick_11">
     <g id="line2d_27">
      <g>
       <use xlink:href="#m6d19f19c32" x="381.302586" y="469.998198" style="stroke: #000000; stroke-width: 0.8"/>
      </g>
     </g>
     <g id="text_24">
      <text style="font-size: 10px; font-family: 'DejaVu Sans'; text-anchor: middle" x="381.302586" y="484.595854" transform="rotate(-0 381.302586 484.595854)">2023</text>
     </g>
    </g>
    <g id="xtick_12">
     <g id="line2d_28">
      <g>
       <use xlink:href="#m6d19f19c32" x="490.158364" y="469.998198" style="stroke: #000000; stroke-width: 0.8"/>
      </g>
     </g>
     <g id="text_25">
      <text style="font-size: 10px; font-family: 'DejaVu Sans'; text-anchor: middle" x="490.158364" y="484.596635" transform="rotate(-0 490.158364 484.596635)">Feb</text>
     </g>
    </g>
    <g id="xtick_13">
     <g id="line2d_29">
      <g>
       <use xlink:href="#m6d19f19c32" x="588.479712" y="469.998198" style="stroke: #000000; stroke-width: 0.8"/>
      </g>
     </g>
     <g id="text_26">
      <text style="font-size: 10px; font-family: 'DejaVu Sans'; text-anchor: middle" x="588.479712" y="484.595854" transform="rotate(-0 588.479712 484.595854)">Mar</text>
     </g>
    </g>
    <g id="xtick_14">
     <g id="line2d_30">
      <g>
       <use xlink:href="#m6d19f19c32" x="697.33549" y="469.998198" style="stroke: #000000; stroke-width: 0.8"/>
      </g>
     </g>
     <g id="text_27">
      <text style="font-size: 10px; font-family: 'DejaVu Sans'; text-anchor: middle" x="697.33549" y="484.595854" transform="rotate(-0 697.33549 484.595854)">Apr</text>
     </g>
    </g>
    <g id="text_28">
     <text style="font-size: 10px; font-family: 'DejaVu Sans'; text-anchor: middle" x="384.814062" y="498.597416" transform="rotate(-0 384.814062 498.597416)">Prediction week beginning Monday (UTC)</text>
    </g>
   </g>
   <g id="matplotlib.axis_4">
    <g id="ytick_7">
     <g id="line2d_31">
      <path d="M 52.628365 469.998198 
L 716.99976 469.998198 
" clip-path="url(#p516b98375b)" style="fill: none; stroke: #b0b0b0; stroke-opacity: 0.2; stroke-width: 0.6; stroke-linecap: square"/>
     </g>
     <g id="line2d_32">
      <g>
       <use xlink:href="#m1e7b7dda97" x="52.628365" y="469.998198" style="stroke: #000000; stroke-width: 0.8"/>
      </g>
     </g>
     <g id="text_29">
      <text style="font-size: 10px; font-family: 'DejaVu Sans'; text-anchor: end" x="45.628365" y="473.797026" transform="rotate(-0 45.628365 473.797026)">0</text>
     </g>
    </g>
    <g id="ytick_8">
     <g id="line2d_33">
      <path d="M 52.628365 431.415482 
L 716.99976 431.415482 
" clip-path="url(#p516b98375b)" style="fill: none; stroke: #b0b0b0; stroke-opacity: 0.2; stroke-width: 0.6; stroke-linecap: square"/>
     </g>
     <g id="line2d_34">
      <g>
       <use xlink:href="#m1e7b7dda97" x="52.628365" y="431.415482" style="stroke: #000000; stroke-width: 0.8"/>
      </g>
     </g>
     <g id="text_30">
      <text style="font-size: 10px; font-family: 'DejaVu Sans'; text-anchor: end" x="45.628365" y="435.21431" transform="rotate(-0 45.628365 435.21431)">1,000</text>
     </g>
    </g>
    <g id="ytick_9">
     <g id="line2d_35">
      <path d="M 52.628365 392.832767 
L 716.99976 392.832767 
" clip-path="url(#p516b98375b)" style="fill: none; stroke: #b0b0b0; stroke-opacity: 0.2; stroke-width: 0.6; stroke-linecap: square"/>
     </g>
     <g id="line2d_36">
      <g>
       <use xlink:href="#m1e7b7dda97" x="52.628365" y="392.832767" style="stroke: #000000; stroke-width: 0.8"/>
      </g>
     </g>
     <g id="text_31">
      <text style="font-size: 10px; font-family: 'DejaVu Sans'; text-anchor: end" x="45.628365" y="396.631595" transform="rotate(-0 45.628365 396.631595)">2,000</text>
     </g>
    </g>
    <g id="ytick_10">
     <g id="line2d_37">
      <path d="M 52.628365 354.250052 
L 716.99976 354.250052 
" clip-path="url(#p516b98375b)" style="fill: none; stroke: #b0b0b0; stroke-opacity: 0.2; stroke-width: 0.6; stroke-linecap: square"/>
     </g>
     <g id="line2d_38">
      <g>
       <use xlink:href="#m1e7b7dda97" x="52.628365" y="354.250052" style="stroke: #000000; stroke-width: 0.8"/>
      </g>
     </g>
     <g id="text_32">
      <text style="font-size: 10px; font-family: 'DejaVu Sans'; text-anchor: end" x="45.628365" y="358.04888" transform="rotate(-0 45.628365 358.04888)">3,000</text>
     </g>
    </g>
    <g id="ytick_11">
     <g id="line2d_39">
      <path d="M 52.628365 315.667337 
L 716.99976 315.667337 
" clip-path="url(#p516b98375b)" style="fill: none; stroke: #b0b0b0; stroke-opacity: 0.2; stroke-width: 0.6; stroke-linecap: square"/>
     </g>
     <g id="line2d_40">
      <g>
       <use xlink:href="#m1e7b7dda97" x="52.628365" y="315.667337" style="stroke: #000000; stroke-width: 0.8"/>
      </g>
     </g>
     <g id="text_33">
      <text style="font-size: 10px; font-family: 'DejaVu Sans'; text-anchor: end" x="45.628365" y="319.466165" transform="rotate(-0 45.628365 319.466165)">4,000</text>
     </g>
    </g>
    <g id="text_34">
     <text style="font-size: 10px; font-family: 'DejaVu Sans'; text-anchor: middle" x="10.597896" y="375.058675" transform="rotate(-90 10.597896 375.058675)">Users</text>
    </g>
   </g>
   <g id="line2d_41">
    <path d="M 89.850018 469.998198 
L 114.430355 467.490321 
L 139.010692 459.040706 
L 163.591029 454.603694 
L 188.171366 452.790307 
L 212.751703 451.13125 
L 237.33204 447.967467 
L 261.912377 447.272978 
L 286.492714 442.681635 
L 311.073051 446.269828 
L 335.653388 446.887151 
L 360.233725 447.350144 
L 384.814062 445.884 
L 409.3944 443.453289 
L 433.974737 438.784781 
L 458.555074 441.176909 
L 483.135411 441.254075 
L 507.715748 441.524154 
L 532.296085 436.083991 
L 556.876422 435.852495 
L 581.456759 432.958791 
L 606.037096 429.949339 
L 630.617433 431.569813 
L 655.19777 421.846969 
L 679.778107 447.543057 
" clip-path="url(#p516b98375b)" style="fill: none; stroke: #174a75; stroke-width: 1.8; stroke-linecap: square"/>
   </g>
   <g id="line2d_42">
    <path d="M 89.850018 438.398954 
L 114.430355 334.379953 
L 139.010692 289.161011 
L 163.591029 344.064215 
L 188.171366 342.636655 
L 212.751703 366.828017 
L 237.33204 337.235074 
L 261.912377 349.928788 
L 286.492714 338.971297 
L 311.073051 356.410684 
L 335.653388 358.957143 
L 360.233725 373.811488 
L 384.814062 373.232748 
L 409.3944 365.670536 
L 433.974737 355.523281 
L 458.555074 358.185489 
L 483.135411 367.252427 
L 507.715748 360.847696 
L 532.296085 344.450042 
L 556.876422 349.157133 
L 581.456759 343.253978 
L 606.037096 339.357124 
L 630.617433 334.032709 
L 655.19777 301.584645 
L 679.778107 404.09892 
" clip-path="url(#p516b98375b)" style="fill: none; stroke-dasharray: 5.55,2.4; stroke-dashoffset: 0; stroke: #737373; stroke-width: 1.5"/>
   </g>
   <g id="patch_10">
    <path d="M 52.628365 469.998198 
L 52.628365 280.119152 
" style="fill: none; stroke: #000000; stroke-width: 0.8; stroke-linejoin: miter; stroke-linecap: square"/>
   </g>
   <g id="patch_11">
    <path d="M 52.628365 469.998198 
L 716.99976 469.998198 
" style="fill: none; stroke: #000000; stroke-width: 0.8; stroke-linejoin: miter; stroke-linecap: square"/>
   </g>
   <g id="text_35">
    <text style="font-size: 8px; font-family: 'DejaVu Sans'; text-anchor: middle; fill: #666666" x="89.850018" y="277.270966" transform="rotate(-0 89.850018 277.270966)">Partial</text>
   </g>
   <g id="text_36">
    <text style="font-size: 8px; font-family: 'DejaVu Sans'; text-anchor: middle; fill: #666666" x="679.778107" y="277.270966" transform="rotate(-0 679.778107 277.270966)">Partial</text>
   </g>
   <g id="text_37">
    <text style="font-size: 12px; font-family: 'DejaVu Sans'; text-anchor: middle" x="384.814062" y="274.119152" transform="rotate(-0 384.814062 274.119152)">b  Users eligible for structural-feature prediction</text>
   </g>
   <g id="legend_2">
    <g id="line2d_43">
     <path d="M 316.273437 293.217589 
L 326.273437 293.217589 
L 336.273437 293.217589 
" style="fill: none; stroke: #174a75; stroke-width: 1.8; stroke-linecap: square"/>
    </g>
    <g id="text_38">
     <text style="font-size: 10px; font-family: 'DejaVu Sans'; text-anchor: start" x="344.273437" y="296.717589" transform="rotate(-0 344.273437 296.717589)">Dataset-eligible users</text>
    </g>
    <g id="line2d_44">
     <path d="M 316.273437 308.218371 
L 326.273437 308.218371 
L 336.273437 308.218371 
" style="fill: none; stroke-dasharray: 5.55,2.4; stroke-dashoffset: 0; stroke: #737373; stroke-width: 1.5"/>
    </g>
    <g id="text_39">
     <text style="font-size: 10px; font-family: 'DejaVu Sans'; text-anchor: start" x="344.273437" y="311.718371" transform="rotate(-0 344.273437 311.718371)">All valid labels</text>
    </g>
   </g>
  </g>
  <g id="text_40">
   <text style="font-size: 14px; font-family: 'DejaVu Sans'; text-anchor: middle" x="360" y="13.638052" transform="rotate(-0 360 13.638052)">Orientation balance and evaluated-user counts</text>
  </g>
 </g>
 <defs>
  <clipPath id="p14af324d94">
   <rect x="52.628365" y="38.119939" width="664.371395" height="189.879046"/>
  </clipPath>
  <clipPath id="p516b98375b">
   <rect x="52.628365" y="280.119152" width="664.371395" height="189.879046"/>
  </clipPath>
 </defs>
</svg>
