<?xml version="1.0" encoding="utf-8" standalone="no"?>
<!DOCTYPE svg PUBLIC "-//W3C//DTD SVG 1.1//EN"
  "http://www.w3.org/Graphics/SVG/1.1/DTD/svg11.dtd">
<svg xmlns:xlink="http://www.w3.org/1999/xlink" width="720pt" height="345.6pt" viewBox="0 0 720 345.6" xmlns="http://www.w3.org/2000/svg" version="1.1">
 <metadata>
  <rdf:RDF xmlns:dc="http://purl.org/dc/elements/1.1/" xmlns:cc="http://creativecommons.org/ns#" xmlns:rdf="http://www.w3.org/1999/02/22-rdf-syntax-ns#">
   <cc:Work>
    <dc:type rdf:resource="http://purl.org/dc/dcmitype/StillImage"/>
    <dc:date>2026-10-04T21:44:21.918050</dc:date>
    <dc:format>image/svg+xml</dc:format>
    <dc:creator>
     <cc:Agent>
      <dc:title>Matplotlib v3.11.2, https://matplotlib.org/</dc:title>
     </cc:Agent>
    </dc:creator>
   </cc:Work>
  </rdf:RDF>
 </metadata>
 <defs>
  <style type="text/css">*{stroke-linejoin: round; stroke-linecap: butt}</style>
 </defs>
 <g id="figure_1">
  <g id="patch_1">
   <path d="M 0 345.6 
L 720 345.6 
L 720 0 
L 0 0 
z
" style="fill: #ffffff"/>
  </g>
  <g id="axes_1">
   <g id="patch_2">
    <path d="M 39.904146 311.598197 
L 716.99976 311.598197 
L 716.99976 18.118365 
L 39.904146 18.118365 
z
" style="fill: #ffffff"/>
   </g>
   <g id="patch_3">
    <path d="M 661.601028 311.598197 
L 686.222687 311.598197 
L 686.222687 18.118365 
L 661.601028 18.118365 
z
" clip-path="url(#p2c04d17734)" style="fill: #aaaaaa; opacity: 0.16; stroke: #aaaaaa; stroke-linejoin: miter"/>
   </g>
   <g id="matplotlib.axis_1">
    <g id="xtick_1">
     <g id="line2d_1">
      <defs>
       <path id="m72645d599e" d="M 0 0 
L 0 3.5 
" style="stroke: #000000; stroke-width: 0.8"/>
      </defs>
      <g>
       <use xlink:href="#m72645d599e" x="46.059561" y="311.598197" style="stroke: #000000; stroke-width: 0.8"/>
      </g>
     </g>
     <g id="text_1">
      <text style="font-size: 10px; font-family: 'DejaVu Sans'; text-anchor: middle" x="46.059561" y="326.195854" transform="rotate(-0 46.059561 326.195854)">15</text>
     </g>
    </g>
    <g id="xtick_2">
     <g id="line2d_2">
      <g>
       <use xlink:href="#m72645d599e" x="150.70161" y="311.598197" style="stroke: #000000; stroke-width: 0.8"/>
      </g>
     </g>
     <g id="text_2">
      <text style="font-size: 10px; font-family: 'DejaVu Sans'; text-anchor: middle" x="150.70161" y="326.195854" transform="rotate(-0 150.70161 326.195854)">Jan</text>
     </g>
    </g>
    <g id="xtick_3">
     <g id="line2d_3">
      <g>
       <use xlink:href="#m72645d599e" x="236.877416" y="311.598197" style="stroke: #000000; stroke-width: 0.8"/>
      </g>
     </g>
     <g id="text_3">
      <text style="font-size: 10px; font-family: 'DejaVu Sans'; text-anchor: middle" x="236.877416" y="326.195854" transform="rotate(-0 236.877416 326.195854)">15</text>
     </g>
    </g>
    <g id="xtick_4">
     <g id="line2d_4">
      <g>
       <use xlink:href="#m72645d599e" x="341.519465" y="311.598197" style="stroke: #000000; stroke-width: 0.8"/>
      </g>
     </g>
     <g id="text_4">
      <text style="font-size: 10px; font-family: 'DejaVu Sans'; text-anchor: middle" x="341.519465" y="326.196635" transform="rotate(-0 341.519465 326.196635)">Feb</text>
     </g>
    </g>
    <g id="xtick_5">
     <g id="line2d_5">
      <g>
       <use xlink:href="#m72645d599e" x="427.69527" y="311.598197" style="stroke: #000000; stroke-width: 0.8"/>
      </g>
     </g>
     <g id="text_5">
      <text style="font-size: 10px; font-family: 'DejaVu Sans'; text-anchor: middle" x="427.69527" y="326.195854" transform="rotate(-0 427.69527 326.195854)">15</text>
     </g>
    </g>
    <g id="xtick_6">
     <g id="line2d_6">
      <g>
       <use xlink:href="#m72645d599e" x="513.871076" y="311.598197" style="stroke: #000000; stroke-width: 0.8"/>
      </g>
     </g>
     <g id="text_6">
      <text style="font-size: 10px; font-family: 'DejaVu Sans'; text-anchor: middle" x="513.871076" y="326.195854" transform="rotate(-0 513.871076 326.195854)">Mar</text>
     </g>
    </g>
    <g id="xtick_7">
     <g id="line2d_7">
      <g>
       <use xlink:href="#m72645d599e" x="600.046881" y="311.598197" style="stroke: #000000; stroke-width: 0.8"/>
      </g>
     </g>
     <g id="text_7">
      <text style="font-size: 10px; font-family: 'DejaVu Sans'; text-anchor: middle" x="600.046881" y="326.195854" transform="rotate(-0 600.046881 326.195854)">15</text>
     </g>
    </g>
    <g id="xtick_8">
     <g id="line2d_8">
      <g>
       <use xlink:href="#m72645d599e" x="704.688931" y="311.598197" style="stroke: #000000; stroke-width: 0.8"/>
      </g>
     </g>
     <g id="text_8">
      <text style="font-size: 10px; font-family: 'DejaVu Sans'; text-anchor: middle" x="704.688931" y="326.195854" transform="rotate(-0 704.688931 326.195854)">Apr</text>
     </g>
    </g>
    <g id="text_9">
     <text style="font-size: 10px; font-family: 'DejaVu Sans'; text-anchor: middle" x="378.451953" y="340.197416" transform="rotate(-0 378.451953 340.197416)">Prediction week beginning Monday (UTC)</text>
    </g>
    <g id="text_10">
     <text style="font-size: 10px; font-family: 'DejaVu Sans'; text-anchor: end" x="716.99976" y="339.196635" transform="rotate(-0 716.99976 339.196635)">2023-Apr</text>
    </g>
   </g>
   <g id="matplotlib.axis_2">
    <g id="ytick_1">
     <g id="line2d_9">
      <path d="M 39.904146 311.598197 
L 716.99976 311.598197 
" clip-path="url(#p2c04d17734)" style="fill: none; stroke: #b0b0b0; stroke-opacity: 0.2; stroke-width: 0.6; stroke-linecap: square"/>
     </g>
     <g id="line2d_10">
      <defs>
       <path id="m994c8ea994" d="M 0 0 
L -3.5 0 
" style="stroke: #000000; stroke-width: 0.8"/>
      </defs>
      <g>
       <use xlink:href="#m994c8ea994" x="39.904146" y="311.598197" style="stroke: #000000; stroke-width: 0.8"/>
      </g>
     </g>
     <g id="text_11">
      <text style="font-size: 10px; font-family: 'DejaVu Sans'; text-anchor: end" x="32.904146" y="315.397026" transform="rotate(-0 32.904146 315.397026)">0.0</text>
     </g>
    </g>
    <g id="ytick_2">
     <g id="line2d_11">
      <path d="M 39.904146 252.902231 
L 716.99976 252.902231 
" clip-path="url(#p2c04d17734)" style="fill: none; stroke: #b0b0b0; stroke-opacity: 0.2; stroke-width: 0.6; stroke-linecap: square"/>
     </g>
     <g id="line2d_12">
      <g>
       <use xlink:href="#m994c8ea994" x="39.904146" y="252.902231" style="stroke: #000000; stroke-width: 0.8"/>
      </g>
     </g>
     <g id="text_12">
      <text style="font-size: 10px; font-family: 'DejaVu Sans'; text-anchor: end" x="32.904146" y="256.701059" transform="rotate(-0 32.904146 256.701059)">0.2</text>
     </g>
    </g>
    <g id="ytick_3">
     <g id="line2d_13">
      <path d="M 39.904146 194.206264 
L 716.99976 194.206264 
" clip-path="url(#p2c04d17734)" style="fill: none; stroke: #b0b0b0; stroke-opacity: 0.2; stroke-width: 0.6; stroke-linecap: square"/>
     </g>
     <g id="line2d_14">
      <g>
       <use xlink:href="#m994c8ea994" x="39.904146" y="194.206264" style="stroke: #000000; stroke-width: 0.8"/>
      </g>
     </g>
     <g id="text_13">
      <text style="font-size: 10px; font-family: 'DejaVu Sans'; text-anchor: end" x="32.904146" y="198.005093" transform="rotate(-0 32.904146 198.005093)">0.4</text>
     </g>
    </g>
    <g id="ytick_4">
     <g id="line2d_15">
      <path d="M 39.904146 135.510298 
L 716.99976 135.510298 
" clip-path="url(#p2c04d17734)" style="fill: none; stroke: #b0b0b0; stroke-opacity: 0.2; stroke-width: 0.6; stroke-linecap: square"/>
     </g>
     <g id="line2d_16">
      <g>
       <use xlink:href="#m994c8ea994" x="39.904146" y="135.510298" style="stroke: #000000; stroke-width: 0.8"/>
      </g>
     </g>
     <g id="text_14">
      <text style="font-size: 10px; font-family: 'DejaVu Sans'; text-anchor: end" x="32.904146" y="139.309126" transform="rotate(-0 32.904146 139.309126)">0.6</text>
     </g>
    </g>
    <g id="ytick_5">
     <g id="line2d_17">
      <path d="M 39.904146 76.814332 
L 716.99976 76.814332 
" clip-path="url(#p2c04d17734)" style="fill: none; stroke: #b0b0b0; stroke-opacity: 0.2; stroke-width: 0.6; stroke-linecap: square"/>
     </g>
     <g id="line2d_18">
      <g>
       <use xlink:href="#m994c8ea994" x="39.904146" y="76.814332" style="stroke: #000000; stroke-width: 0.8"/>
      </g>
     </g>
     <g id="text_15">
      <text style="font-size: 10px; font-family: 'DejaVu Sans'; text-anchor: end" x="32.904146" y="80.61316" transform="rotate(-0 32.904146 80.61316)">0.8</text>
     </g>
    </g>
    <g id="ytick_6">
     <g id="line2d_19">
      <path d="M 39.904146 18.118365 
L 716.99976 18.118365 
" clip-path="url(#p2c04d17734)" style="fill: none; stroke: #b0b0b0; stroke-opacity: 0.2; stroke-width: 0.6; stroke-linecap: square"/>
     </g>
     <g id="line2d_20">
      <g>
       <use xlink:href="#m994c8ea994" x="39.904146" y="18.118365" style="stroke: #000000; stroke-width: 0.8"/>
      </g>
     </g>
     <g id="text_16">
      <text style="font-size: 10px; font-family: 'DejaVu Sans'; text-anchor: end" x="32.904146" y="21.917193" transform="rotate(-0 32.904146 21.917193)">1.0</text>
     </g>
    </g>
    <g id="text_17">
     <text style="font-size: 10px; font-family: 'DejaVu Sans'; text-anchor: middle" x="10.598678" y="164.858281" transform="rotate(-90 10.598678 164.858281)">Balanced accuracy</text>
    </g>
   </g>
   <g id="line2d_21">
    <path d="M 70.68122 164.858281 
L 113.769122 164.858281 
L 156.857025 164.858281 
L 199.944928 164.858281 
L 243.03283 164.858281 
L 286.120733 164.858281 
L 329.208636 164.858281 
L 372.296538 164.858281 
L 415.384441 164.858281 
L 458.472344 164.858281 
L 501.560247 164.858281 
L 544.648149 164.858281 
L 587.736052 164.858281 
L 630.823955 164.858281 
L 673.911857 164.858281 
" clip-path="url(#p2c04d17734)" style="fill: none; stroke: #737373; stroke-width: 1.7; stroke-linecap: square"/>
    <defs>
     <path id="m8797a01ef3" d="M 0 1.5 
C 0.397805 1.5 0.77937 1.341951 1.06066 1.06066 
C 1.341951 0.77937 1.5 0.397805 1.5 0 
C 1.5 -0.397805 1.341951 -0.77937 1.06066 -1.06066 
C 0.77937 -1.341951 0.397805 -1.5 0 -1.5 
C -0.397805 -1.5 -0.77937 -1.341951 -1.06066 -1.06066 
C -1.341951 -0.77937 -1.5 -0.397805 -1.5 0 
C -1.5 0.397805 -1.341951 0.77937 -1.06066 1.06066 
C -0.77937 1.341951 -0.397805 1.5 0 1.5 
z
" style="stroke: #737373"/>
    </defs>
    <g clip-path="url(#p2c04d17734)">
     <use xlink:href="#m8797a01ef3" x="70.68122" y="164.858281" style="fill: #737373; stroke: #737373"/>
     <use xlink:href="#m8797a01ef3" x="113.769122" y="164.858281" style="fill: #737373; stroke: #737373"/>
     <use xlink:href="#m8797a01ef3" x="156.857025" y="164.858281" style="fill: #737373; stroke: #737373"/>
     <use xlink:href="#m8797a01ef3" x="199.944928" y="164.858281" style="fill: #737373; stroke: #737373"/>
     <use xlink:href="#m8797a01ef3" x="243.03283" y="164.858281" style="fill: #737373; stroke: #737373"/>
     <use xlink:href="#m8797a01ef3" x="286.120733" y="164.858281" style="fill: #737373; stroke: #737373"/>
     <use xlink:href="#m8797a01ef3" x="329.208636" y="164.858281" style="fill: #737373; stroke: #737373"/>
     <use xlink:href="#m8797a01ef3" x="372.296538" y="164.858281" style="fill: #737373; stroke: #737373"/>
     <use xlink:href="#m8797a01ef3" x="415.384441" y="164.858281" style="fill: #737373; stroke: #737373"/>
     <use xlink:href="#m8797a01ef3" x="458.472344" y="164.858281" style="fill: #737373; stroke: #737373"/>
     <use xlink:href="#m8797a01ef3" x="501.560247" y="164.858281" style="fill: #737373; stroke: #737373"/>
     <use xlink:href="#m8797a01ef3" x="544.648149" y="164.858281" style="fill: #737373; stroke: #737373"/>
     <use xlink:href="#m8797a01ef3" x="587.736052" y="164.858281" style="fill: #737373; stroke: #737373"/>
     <use xlink:href="#m8797a01ef3" x="630.823955" y="164.858281" style="fill: #737373; stroke: #737373"/>
     <use xlink:href="#m8797a01ef3" x="673.911857" y="164.858281" style="fill: #737373; stroke: #737373"/>
    </g>
   </g>
   <g id="line2d_22">
    <path d="M 70.68122 144.667978 
L 113.769122 163.919937 
L 156.857025 148.882272 
L 199.944928 157.032369 
L 243.03283 165.595884 
L 286.120733 144.743329 
L 329.208636 155.588757 
L 372.296538 154.57561 
L 415.384441 146.650936 
L 458.472344 150.143275 
L 501.560247 151.104865 
L 544.648149 153.918154 
L 587.736052 150.864458 
L 630.823955 150.222303 
L 673.911857 157.702601 
" clip-path="url(#p2c04d17734)" style="fill: none; stroke: #b65b25; stroke-width: 1.7; stroke-linecap: square"/>
    <defs>
     <path id="mf752768e04" d="M 0 1.5 
C 0.397805 1.5 0.77937 1.341951 1.06066 1.06066 
C 1.341951 0.77937 1.5 0.397805 1.5 0 
C 1.5 -0.397805 1.341951 -0.77937 1.06066 -1.06066 
C 0.77937 -1.341951 0.397805 -1.5 0 -1.5 
C -0.397805 -1.5 -0.77937 -1.341951 -1.06066 -1.06066 
C -1.341951 -0.77937 -1.5 -0.397805 -1.5 0 
C -1.5 0.397805 -1.341951 0.77937 -1.06066 1.06066 
C -0.77937 1.341951 -0.397805 1.5 0 1.5 
z
" style="stroke: #b65b25"/>
    </defs>
    <g clip-path="url(#p2c04d17734)">
     <use xlink:href="#mf752768e04" x="70.68122" y="144.667978" style="fill: #b65b25; stroke: #b65b25"/>
     <use xlink:href="#mf752768e04" x="113.769122" y="163.919937" style="fill: #b65b25; stroke: #b65b25"/>
     <use xlink:href="#mf752768e04" x="156.857025" y="148.882272" style="fill: #b65b25; stroke: #b65b25"/>
     <use xlink:href="#mf752768e04" x="199.944928" y="157.032369" style="fill: #b65b25; stroke: #b65b25"/>
     <use xlink:href="#mf752768e04" x="243.03283" y="165.595884" style="fill: #b65b25; stroke: #b65b25"/>
     <use xlink:href="#mf752768e04" x="286.120733" y="144.743329" style="fill: #b65b25; stroke: #b65b25"/>
     <use xlink:href="#mf752768e04" x="329.208636" y="155.588757" style="fill: #b65b25; stroke: #b65b25"/>
     <use xlink:href="#mf752768e04" x="372.296538" y="154.57561" style="fill: #b65b25; stroke: #b65b25"/>
     <use xlink:href="#mf752768e04" x="415.384441" y="146.650936" style="fill: #b65b25; stroke: #b65b25"/>
     <use xlink:href="#mf752768e04" x="458.472344" y="150.143275" style="fill: #b65b25; stroke: #b65b25"/>
     <use xlink:href="#mf752768e04" x="501.560247" y="151.104865" style="fill: #b65b25; stroke: #b65b25"/>
     <use xlink:href="#mf752768e04" x="544.648149" y="153.918154" style="fill: #b65b25; stroke: #b65b25"/>
     <use xlink:href="#mf752768e04" x="587.736052" y="150.864458" style="fill: #b65b25; stroke: #b65b25"/>
     <use xlink:href="#mf752768e04" x="630.823955" y="150.222303" style="fill: #b65b25; stroke: #b65b25"/>
     <use xlink:href="#mf752768e04" x="673.911857" y="157.702601" style="fill: #b65b25; stroke: #b65b25"/>
    </g>
   </g>
   <g id="line2d_23">
    <path d="M 70.68122 155.509796 
L 113.769122 163.275039 
L 156.857025 156.799252 
L 199.944928 160.567984 
L 243.03283 158.102305 
L 286.120733 154.260375 
L 329.208636 177.045989 
L 372.296538 161.215352 
L 415.384441 166.437319 
L 458.472344 163.280037 
L 501.560247 166.224367 
L 544.648149 159.202547 
L 587.736052 164.74596 
L 630.823955 160.282153 
L 673.911857 152.690629 
" clip-path="url(#p2c04d17734)" style="fill: none; stroke: #174a75; stroke-width: 1.7; stroke-linecap: square"/>
    <defs>
     <path id="me7c9830581" d="M 0 1.5 
C 0.397805 1.5 0.77937 1.341951 1.06066 1.06066 
C 1.341951 0.77937 1.5 0.397805 1.5 0 
C 1.5 -0.397805 1.341951 -0.77937 1.06066 -1.06066 
C 0.77937 -1.341951 0.397805 -1.5 0 -1.5 
C -0.397805 -1.5 -0.77937 -1.341951 -1.06066 -1.06066 
C -1.341951 -0.77937 -1.5 -0.397805 -1.5 0 
C -1.5 0.397805 -1.341951 0.77937 -1.06066 1.06066 
C -0.77937 1.341951 -0.397805 1.5 0 1.5 
z
" style="stroke: #174a75"/>
    </defs>
    <g clip-path="url(#p2c04d17734)">
     <use xlink:href="#me7c9830581" x="70.68122" y="155.509796" style="fill: #174a75; stroke: #174a75"/>
     <use xlink:href="#me7c9830581" x="113.769122" y="163.275039" style="fill: #174a75; stroke: #174a75"/>
     <use xlink:href="#me7c9830581" x="156.857025" y="156.799252" style="fill: #174a75; stroke: #174a75"/>
     <use xlink:href="#me7c9830581" x="199.944928" y="160.567984" style="fill: #174a75; stroke: #174a75"/>
     <use xlink:href="#me7c9830581" x="243.03283" y="158.102305" style="fill: #174a75; stroke: #174a75"/>
     <use xlink:href="#me7c9830581" x="286.120733" y="154.260375" style="fill: #174a75; stroke: #174a75"/>
     <use xlink:href="#me7c9830581" x="329.208636" y="177.045989" style="fill: #174a75; stroke: #174a75"/>
     <use xlink:href="#me7c9830581" x="372.296538" y="161.215352" style="fill: #174a75; stroke: #174a75"/>
     <use xlink:href="#me7c9830581" x="415.384441" y="166.437319" style="fill: #174a75; stroke: #174a75"/>
     <use xlink:href="#me7c9830581" x="458.472344" y="163.280037" style="fill: #174a75; stroke: #174a75"/>
     <use xlink:href="#me7c9830581" x="501.560247" y="166.224367" style="fill: #174a75; stroke: #174a75"/>
     <use xlink:href="#me7c9830581" x="544.648149" y="159.202547" style="fill: #174a75; stroke: #174a75"/>
     <use xlink:href="#me7c9830581" x="587.736052" y="164.74596" style="fill: #174a75; stroke: #174a75"/>
     <use xlink:href="#me7c9830581" x="630.823955" y="160.282153" style="fill: #174a75; stroke: #174a75"/>
     <use xlink:href="#me7c9830581" x="673.911857" y="152.690629" style="fill: #174a75; stroke: #174a75"/>
    </g>
   </g>
   <g id="line2d_24">
    <path d="M 39.904146 164.858281 
L 716.99976 164.858281 
" clip-path="url(#p2c04d17734)" style="fill: none; stroke-dasharray: 5.18,2.24; stroke-dashoffset: 0; stroke: #4d8064; stroke-width: 1.4"/>
   </g>
   <g id="patch_4">
    <path d="M 39.904146 311.598197 
L 39.904146 18.118365 
" style="fill: none; stroke: #000000; stroke-width: 0.8; stroke-linejoin: miter; stroke-linecap: square"/>
   </g>
   <g id="patch_5">
    <path d="M 39.904146 311.598197 
L 716.99976 311.598197 
" style="fill: none; stroke: #000000; stroke-width: 0.8; stroke-linejoin: miter; stroke-linecap: square"/>
   </g>
   <g id="text_18">
    <text style="font-size: 8px; font-family: 'DejaVu Sans'; text-anchor: middle; fill: #666666" x="673.911857" y="13.716168" transform="rotate(-0 673.911857 13.716168)">Partial</text>
   </g>
   <g id="text_19">
    <text style="font-size: 12px; font-family: 'DejaVu Sans'; text-anchor: middle" x="378.451953" y="12.118365" transform="rotate(-0 378.451953 12.118365)">Rolling-origin balanced accuracy</text>
   </g>
   <g id="legend_1">
    <g id="line2d_25">
     <path d="M 48.004146 284.685385 
L 57.004146 284.685385 
L 66.004146 284.685385 
" style="fill: none; stroke: #737373; stroke-width: 1.7; stroke-linecap: square"/>
     <g>
      <use xlink:href="#m8797a01ef3" x="57.004146" y="284.685385" style="fill: #737373; stroke: #737373"/>
     </g>
    </g>
    <g id="text_20">
     <text style="font-size: 9px; font-family: 'DejaVu Sans'; text-anchor: start" x="73.204146" y="287.835385" transform="rotate(-0 73.204146 287.835385)">Majority</text>
    </g>
    <g id="line2d_26">
     <path d="M 48.004146 298.186088 
L 57.004146 298.186088 
L 66.004146 298.186088 
" style="fill: none; stroke: #b65b25; stroke-width: 1.7; stroke-linecap: square"/>
     <g>
      <use xlink:href="#mf752768e04" x="57.004146" y="298.186088" style="fill: #b65b25; stroke: #b65b25"/>
     </g>
    </g>
    <g id="text_21">
     <text style="font-size: 9px; font-family: 'DejaVu Sans'; text-anchor: start" x="73.204146" y="301.336088" transform="rotate(-0 73.204146 301.336088)">Persistence</text>
    </g>
    <g id="line2d_27">
     <path d="M 142.681334 284.685385 
L 151.681334 284.685385 
L 160.681334 284.685385 
" style="fill: none; stroke: #174a75; stroke-width: 1.7; stroke-linecap: square"/>
     <g>
      <use xlink:href="#me7c9830581" x="151.681334" y="284.685385" style="fill: #174a75; stroke: #174a75"/>
     </g>
    </g>
    <g id="text_22">
     <text style="font-size: 9px; font-family: 'DejaVu Sans'; text-anchor: start" x="167.881334" y="287.835385" transform="rotate(-0 167.881334 287.835385)">Logistic Regression</text>
    </g>
    <g id="line2d_28">
     <path d="M 142.681334 298.186088 
L 151.681334 298.186088 
L 160.681334 298.186088 
" style="fill: none; stroke-dasharray: 5.18,2.24; stroke-dashoffset: 0; stroke: #4d8064; stroke-width: 1.4"/>
    </g>
    <g id="text_23">
     <text style="font-size: 9px; font-family: 'DejaVu Sans'; text-anchor: start" x="167.881334" y="301.336088" transform="rotate(-0 167.881334 301.336088)">No-skill: 0.5</text>
    </g>
   </g>
  </g>
 </g>
 <defs>
  <clipPath id="p2c04d17734">
   <rect x="39.904146" y="18.118365" width="677.095614" height="293.479832"/>
  </clipPath>
 </defs>
</svg>
