<?xml version="1.0" encoding="utf-8" standalone="no"?>
<!DOCTYPE svg PUBLIC "-//W3C//DTD SVG 1.1//EN"
  "http://www.w3.org/Graphics/SVG/1.1/DTD/svg11.dtd">
<svg xmlns:xlink="http://www.w3.org/1999/xlink" width="720pt" height="345.6pt" viewBox="0 0 720 345.6" xmlns="http://www.w3.org/2000/svg" version="1.1">
 <metadata>
  <rdf:RDF xmlns:dc="http://purl.org/dc/elements/1.1/" xmlns:cc="http://creativecommons.org/ns#" xmlns:rdf="http://www.w3.org/1999/02/22-rdf-syntax-ns#">
   <cc:Work>
    <dc:type rdf:resource="http://purl.org/dc/dcmitype/StillImage"/>
    <dc:date>2026-10-04T21:44:20.601248</dc:date>
    <dc:format>image/svg+xml</dc:format>
    <dc:creator>
     <cc:Agent>
      <dc:title>Matplotlib v3.11.2, https://matplotlib.org/</dc:title>
     </cc:Agent>
    </dc:creator>
   </cc:Work>
  </rdf:RDF>
 </metadata>
 <defs>
  <style type="text/css">*{stroke-linejoin: round; stroke-linecap: butt}</style>
 </defs>
 <g id="figure_1">
  <g id="patch_1">
   <path d="M 0 345.6 
L 720 345.6 
L 720 0 
L 0 0 
z
" style="fill: #ffffff"/>
  </g>
  <g id="axes_1">
   <g id="patch_2">
    <path d="M 39.903365 311.598197 
L 716.99976 311.598197 
L 716.99976 18.118365 
L 39.903365 18.118365 
z
" style="fill: #ffffff"/>
   </g>
   <g id="patch_3">
    <path d="M 661.600964 311.598197 
L 686.222651 311.598197 
L 686.222651 18.118365 
L 661.600964 18.118365 
z
" clip-path="url(#p0d8c17e1d5)" style="fill: #aaaaaa; opacity: 0.16; stroke: #aaaaaa; stroke-linejoin: miter"/>
   </g>
   <g id="matplotlib.axis_1">
    <g id="xtick_1">
     <g id="line2d_1">
      <defs>
       <path id="me293bc8dc7" d="M 0 0 
L 0 3.5 
" style="stroke: #000000; stroke-width: 0.8"/>
      </defs>
      <g>
       <use xlink:href="#me293bc8dc7" x="46.058787" y="311.598197" style="stroke: #000000; stroke-width: 0.8"/>
      </g>
     </g>
     <g id="text_1">
      <text style="font-size: 10px; font-family: 'DejaVu Sans'; text-anchor: middle" x="46.058787" y="326.195854" transform="rotate(-0 46.058787 326.195854)">15</text>
     </g>
    </g>
    <g id="xtick_2">
     <g id="line2d_2">
      <g>
       <use xlink:href="#me293bc8dc7" x="150.700957" y="311.598197" style="stroke: #000000; stroke-width: 0.8"/>
      </g>
     </g>
     <g id="text_2">
      <text style="font-size: 10px; font-family: 'DejaVu Sans'; text-anchor: middle" x="150.700957" y="326.195854" transform="rotate(-0 150.700957 326.195854)">Jan</text>
     </g>
    </g>
    <g id="xtick_3">
     <g id="line2d_3">
      <g>
       <use xlink:href="#me293bc8dc7" x="236.876862" y="311.598197" style="stroke: #000000; stroke-width: 0.8"/>
      </g>
     </g>
     <g id="text_3">
      <text style="font-size: 10px; font-family: 'DejaVu Sans'; text-anchor: middle" x="236.876862" y="326.195854" transform="rotate(-0 236.876862 326.195854)">15</text>
     </g>
    </g>
    <g id="xtick_4">
     <g id="line2d_4">
      <g>
       <use xlink:href="#me293bc8dc7" x="341.519032" y="311.598197" style="stroke: #000000; stroke-width: 0.8"/>
      </g>
     </g>
     <g id="text_4">
      <text style="font-size: 10px; font-family: 'DejaVu Sans'; text-anchor: middle" x="341.519032" y="326.196635" transform="rotate(-0 341.519032 326.196635)">Feb</text>
     </g>
    </g>
    <g id="xtick_5">
     <g id="line2d_5">
      <g>
       <use xlink:href="#me293bc8dc7" x="427.694937" y="311.598197" style="stroke: #000000; stroke-width: 0.8"/>
      </g>
     </g>
     <g id="text_5">
      <text style="font-size: 10px; font-family: 'DejaVu Sans'; text-anchor: middle" x="427.694937" y="326.195854" transform="rotate(-0 427.694937 326.195854)">15</text>
     </g>
    </g>
    <g id="xtick_6">
     <g id="line2d_6">
      <g>
       <use xlink:href="#me293bc8dc7" x="513.870842" y="311.598197" style="stroke: #000000; stroke-width: 0.8"/>
      </g>
     </g>
     <g id="text_6">
      <text style="font-size: 10px; font-family: 'DejaVu Sans'; text-anchor: middle" x="513.870842" y="326.195854" transform="rotate(-0 513.870842 326.195854)">Mar</text>
     </g>
    </g>
    <g id="xtick_7">
     <g id="line2d_7">
      <g>
       <use xlink:href="#me293bc8dc7" x="600.046746" y="311.598197" style="stroke: #000000; stroke-width: 0.8"/>
      </g>
     </g>
     <g id="text_7">
      <text style="font-size: 10px; font-family: 'DejaVu Sans'; text-anchor: middle" x="600.046746" y="326.195854" transform="rotate(-0 600.046746 326.195854)">15</text>
     </g>
    </g>
    <g id="xtick_8">
     <g id="line2d_8">
      <g>
       <use xlink:href="#me293bc8dc7" x="704.688916" y="311.598197" style="stroke: #000000; stroke-width: 0.8"/>
      </g>
     </g>
     <g id="text_8">
      <text style="font-size: 10px; font-family: 'DejaVu Sans'; text-anchor: middle" x="704.688916" y="326.195854" transform="rotate(-0 704.688916 326.195854)">Apr</text>
     </g>
    </g>
    <g id="text_9">
     <text style="font-size: 10px; font-family: 'DejaVu Sans'; text-anchor: middle" x="378.451562" y="340.197416" transform="rotate(-0 378.451562 340.197416)">Prediction week beginning Monday (UTC)</text>
    </g>
    <g id="text_10">
     <text style="font-size: 10px; font-family: 'DejaVu Sans'; text-anchor: end" x="716.99976" y="339.196635" transform="rotate(-0 716.99976 339.196635)">2023-Apr</text>
    </g>
   </g>
   <g id="matplotlib.axis_2">
    <g id="ytick_1">
     <g id="line2d_9">
      <path d="M 39.903365 311.598197 
L 716.99976 311.598197 
" clip-path="url(#p0d8c17e1d5)" style="fill: none; stroke: #b0b0b0; stroke-opacity: 0.2; stroke-width: 0.6; stroke-linecap: square"/>
     </g>
     <g id="line2d_10">
      <defs>
       <path id="me4a7d5d690" d="M 0 0 
L -3.5 0 
" style="stroke: #000000; stroke-width: 0.8"/>
      </defs>
      <g>
       <use xlink:href="#me4a7d5d690" x="39.903365" y="311.598197" style="stroke: #000000; stroke-width: 0.8"/>
      </g>
     </g>
     <g id="text_11">
      <text style="font-size: 10px; font-family: 'DejaVu Sans'; text-anchor: end" x="32.903365" y="315.397026" transform="rotate(-0 32.903365 315.397026)">0.0</text>
     </g>
    </g>
    <g id="ytick_2">
     <g id="line2d_11">
      <path d="M 39.903365 252.902231 
L 716.99976 252.902231 
" clip-path="url(#p0d8c17e1d5)" style="fill: none; stroke: #b0b0b0; stroke-opacity: 0.2; stroke-width: 0.6; stroke-linecap: square"/>
     </g>
     <g id="line2d_12">
      <g>
       <use xlink:href="#me4a7d5d690" x="39.903365" y="252.902231" style="stroke: #000000; stroke-width: 0.8"/>
      </g>
     </g>
     <g id="text_12">
      <text style="font-size: 10px; font-family: 'DejaVu Sans'; text-anchor: end" x="32.903365" y="256.701059" transform="rotate(-0 32.903365 256.701059)">0.2</text>
     </g>
    </g>
    <g id="ytick_3">
     <g id="line2d_13">
      <path d="M 39.903365 194.206264 
L 716.99976 194.206264 
" clip-path="url(#p0d8c17e1d5)" style="fill: none; stroke: #b0b0b0; stroke-opacity: 0.2; stroke-width: 0.6; stroke-linecap: square"/>
     </g>
     <g id="line2d_14">
      <g>
       <use xlink:href="#me4a7d5d690" x="39.903365" y="194.206264" style="stroke: #000000; stroke-width: 0.8"/>
      </g>
     </g>
     <g id="text_13">
      <text style="font-size: 10px; font-family: 'DejaVu Sans'; text-anchor: end" x="32.903365" y="198.005093" transform="rotate(-0 32.903365 198.005093)">0.4</text>
     </g>
    </g>
    <g id="ytick_4">
     <g id="line2d_15">
      <path d="M 39.903365 135.510298 
L 716.99976 135.510298 
" clip-path="url(#p0d8c17e1d5)" style="fill: none; stroke: #b0b0b0; stroke-opacity: 0.2; stroke-width: 0.6; stroke-linecap: square"/>
     </g>
     <g id="line2d_16">
      <g>
       <use xlink:href="#me4a7d5d690" x="39.903365" y="135.510298" style="stroke: #000000; stroke-width: 0.8"/>
      </g>
     </g>
     <g id="text_14">
      <text style="font-size: 10px; font-family: 'DejaVu Sans'; text-anchor: end" x="32.903365" y="139.309126" transform="rotate(-0 32.903365 139.309126)">0.6</text>
     </g>
    </g>
    <g id="ytick_5">
     <g id="line2d_17">
      <path d="M 39.903365 76.814332 
L 716.99976 76.814332 
" clip-path="url(#p0d8c17e1d5)" style="fill: none; stroke: #b0b0b0; stroke-opacity: 0.2; stroke-width: 0.6; stroke-linecap: square"/>
     </g>
     <g id="line2d_18">
      <g>
       <use xlink:href="#me4a7d5d690" x="39.903365" y="76.814332" style="stroke: #000000; stroke-width: 0.8"/>
      </g>
     </g>
     <g id="text_15">
      <text style="font-size: 10px; font-family: 'DejaVu Sans'; text-anchor: end" x="32.903365" y="80.61316" transform="rotate(-0 32.903365 80.61316)">0.8</text>
     </g>
    </g>
    <g id="ytick_6">
     <g id="line2d_19">
      <path d="M 39.903365 18.118365 
L 716.99976 18.118365 
" clip-path="url(#p0d8c17e1d5)" style="fill: none; stroke: #b0b0b0; stroke-opacity: 0.2; stroke-width: 0.6; stroke-linecap: square"/>
     </g>
     <g id="line2d_20">
      <g>
       <use xlink:href="#me4a7d5d690" x="39.903365" y="18.118365" style="stroke: #000000; stroke-width: 0.8"/>
      </g>
     </g>
     <g id="text_16">
      <text style="font-size: 10px; font-family: 'DejaVu Sans'; text-anchor: end" x="32.903365" y="21.917193" transform="rotate(-0 32.903365 21.917193)">1.0</text>
     </g>
    </g>
    <g id="text_17">
     <text style="font-size: 10px; font-family: 'DejaVu Sans'; text-anchor: middle" x="10.597896" y="164.858281" transform="rotate(-90 10.597896 164.858281)">Macro-F1</text>
    </g>
   </g>
   <g id="line2d_21">
    <path d="M 70.680474 210.875404 
L 113.768426 211.249152 
L 156.856379 208.987143 
L 199.944331 207.709092 
L 243.032284 215.315362 
L 286.120236 211.272052 
L 329.208188 210.924781 
L 372.296141 209.619794 
L 415.384093 209.916709 
L 458.472046 210.653318 
L 501.559998 210.695699 
L 544.64795 211.781471 
L 587.735903 209.543325 
L 630.823855 206.719205 
L 673.911808 205.61042 
" clip-path="url(#p0d8c17e1d5)" style="fill: none; stroke: #737373; stroke-width: 1.7; stroke-linecap: square"/>
    <defs>
     <path id="m793f0f3840" d="M 0 1.5 
C 0.397805 1.5 0.77937 1.341951 1.06066 1.06066 
C 1.341951 0.77937 1.5 0.397805 1.5 0 
C 1.5 -0.397805 1.341951 -0.77937 1.06066 -1.06066 
C 0.77937 -1.341951 0.397805 -1.5 0 -1.5 
C -0.397805 -1.5 -0.77937 -1.341951 -1.06066 -1.06066 
C -1.341951 -0.77937 -1.5 -0.397805 -1.5 0 
C -1.5 0.397805 -1.341951 0.77937 -1.06066 1.06066 
C -0.77937 1.341951 -0.397805 1.5 0 1.5 
z
" style="stroke: #737373"/>
    </defs>
    <g clip-path="url(#p0d8c17e1d5)">
     <use xlink:href="#m793f0f3840" x="70.680474" y="210.875404" style="fill: #737373; stroke: #737373"/>
     <use xlink:href="#m793f0f3840" x="113.768426" y="211.249152" style="fill: #737373; stroke: #737373"/>
     <use xlink:href="#m793f0f3840" x="156.856379" y="208.987143" style="fill: #737373; stroke: #737373"/>
     <use xlink:href="#m793f0f3840" x="199.944331" y="207.709092" style="fill: #737373; stroke: #737373"/>
     <use xlink:href="#m793f0f3840" x="243.032284" y="215.315362" style="fill: #737373; stroke: #737373"/>
     <use xlink:href="#m793f0f3840" x="286.120236" y="211.272052" style="fill: #737373; stroke: #737373"/>
     <use xlink:href="#m793f0f3840" x="329.208188" y="210.924781" style="fill: #737373; stroke: #737373"/>
     <use xlink:href="#m793f0f3840" x="372.296141" y="209.619794" style="fill: #737373; stroke: #737373"/>
     <use xlink:href="#m793f0f3840" x="415.384093" y="209.916709" style="fill: #737373; stroke: #737373"/>
     <use xlink:href="#m793f0f3840" x="458.472046" y="210.653318" style="fill: #737373; stroke: #737373"/>
     <use xlink:href="#m793f0f3840" x="501.559998" y="210.695699" style="fill: #737373; stroke: #737373"/>
     <use xlink:href="#m793f0f3840" x="544.64795" y="211.781471" style="fill: #737373; stroke: #737373"/>
     <use xlink:href="#m793f0f3840" x="587.735903" y="209.543325" style="fill: #737373; stroke: #737373"/>
     <use xlink:href="#m793f0f3840" x="630.823855" y="206.719205" style="fill: #737373; stroke: #737373"/>
     <use xlink:href="#m793f0f3840" x="673.911808" y="205.61042" style="fill: #737373; stroke: #737373"/>
    </g>
   </g>
   <g id="line2d_22">
    <path d="M 70.680474 144.718524 
L 113.768426 164.300106 
L 156.856379 148.884362 
L 199.944331 157.12095 
L 243.032284 166.76596 
L 286.120236 144.799748 
L 329.208188 155.766323 
L 372.296141 154.699096 
L 415.384093 146.698834 
L 458.472046 150.414595 
L 501.559998 151.303414 
L 544.64795 154.336187 
L 587.735903 150.858091 
L 630.823855 150.207759 
L 673.911808 157.758106 
" clip-path="url(#p0d8c17e1d5)" style="fill: none; stroke: #b65b25; stroke-width: 1.7; stroke-linecap: square"/>
    <defs>
     <path id="mb642211367" d="M 0 1.5 
C 0.397805 1.5 0.77937 1.341951 1.06066 1.06066 
C 1.341951 0.77937 1.5 0.397805 1.5 0 
C 1.5 -0.397805 1.341951 -0.77937 1.06066 -1.06066 
C 0.77937 -1.341951 0.397805 -1.5 0 -1.5 
C -0.397805 -1.5 -0.77937 -1.341951 -1.06066 -1.06066 
C -1.341951 -0.77937 -1.5 -0.397805 -1.5 0 
C -1.5 0.397805 -1.341951 0.77937 -1.06066 1.06066 
C -0.77937 1.341951 -0.397805 1.5 0 1.5 
z
" style="stroke: #b65b25"/>
    </defs>
    <g clip-path="url(#p0d8c17e1d5)">
     <use xlink:href="#mb642211367" x="70.680474" y="144.718524" style="fill: #b65b25; stroke: #b65b25"/>
     <use xlink:href="#mb642211367" x="113.768426" y="164.300106" style="fill: #b65b25; stroke: #b65b25"/>
     <use xlink:href="#mb642211367" x="156.856379" y="148.884362" style="fill: #b65b25; stroke: #b65b25"/>
     <use xlink:href="#mb642211367" x="199.944331" y="157.12095" style="fill: #b65b25; stroke: #b65b25"/>
     <use xlink:href="#mb642211367" x="243.032284" y="166.76596" style="fill: #b65b25; stroke: #b65b25"/>
     <use xlink:href="#mb642211367" x="286.120236" y="144.799748" style="fill: #b65b25; stroke: #b65b25"/>
     <use xlink:href="#mb642211367" x="329.208188" y="155.766323" style="fill: #b65b25; stroke: #b65b25"/>
     <use xlink:href="#mb642211367" x="372.296141" y="154.699096" style="fill: #b65b25; stroke: #b65b25"/>
     <use xlink:href="#mb642211367" x="415.384093" y="146.698834" style="fill: #b65b25; stroke: #b65b25"/>
     <use xlink:href="#mb642211367" x="458.472046" y="150.414595" style="fill: #b65b25; stroke: #b65b25"/>
     <use xlink:href="#mb642211367" x="501.559998" y="151.303414" style="fill: #b65b25; stroke: #b65b25"/>
     <use xlink:href="#mb642211367" x="544.64795" y="154.336187" style="fill: #b65b25; stroke: #b65b25"/>
     <use xlink:href="#mb642211367" x="587.735903" y="150.858091" style="fill: #b65b25; stroke: #b65b25"/>
     <use xlink:href="#mb642211367" x="630.823855" y="150.207759" style="fill: #b65b25; stroke: #b65b25"/>
     <use xlink:href="#mb642211367" x="673.911808" y="157.758106" style="fill: #b65b25; stroke: #b65b25"/>
    </g>
   </g>
   <g id="line2d_23">
    <path d="M 70.680474 173.093084 
L 113.768426 174.116615 
L 156.856379 167.024328 
L 199.944331 171.906498 
L 243.032284 163.498742 
L 286.120236 165.470115 
L 329.208188 184.947714 
L 372.296141 171.748985 
L 415.384093 176.211259 
L 458.472046 175.897649 
L 501.559998 176.096433 
L 544.64795 169.777061 
L 587.735903 174.314227 
L 630.823855 173.909632 
L 673.911808 168.510629 
" clip-path="url(#p0d8c17e1d5)" style="fill: none; stroke: #174a75; stroke-width: 1.7; stroke-linecap: square"/>
    <defs>
     <path id="m2bbda39689" d="M 0 1.5 
C 0.397805 1.5 0.77937 1.341951 1.06066 1.06066 
C 1.341951 0.77937 1.5 0.397805 1.5 0 
C 1.5 -0.397805 1.341951 -0.77937 1.06066 -1.06066 
C 0.77937 -1.341951 0.397805 -1.5 0 -1.5 
C -0.397805 -1.5 -0.77937 -1.341951 -1.06066 -1.06066 
C -1.341951 -0.77937 -1.5 -0.397805 -1.5 0 
C -1.5 0.397805 -1.341951 0.77937 -1.06066 1.06066 
C -0.77937 1.341951 -0.397805 1.5 0 1.5 
z
" style="stroke: #174a75"/>
    </defs>
    <g clip-path="url(#p0d8c17e1d5)">
     <use xlink:href="#m2bbda39689" x="70.680474" y="173.093084" style="fill: #174a75; stroke: #174a75"/>
     <use xlink:href="#m2bbda39689" x="113.768426" y="174.116615" style="fill: #174a75; stroke: #174a75"/>
     <use xlink:href="#m2bbda39689" x="156.856379" y="167.024328" style="fill: #174a75; stroke: #174a75"/>
     <use xlink:href="#m2bbda39689" x="199.944331" y="171.906498" style="fill: #174a75; stroke: #174a75"/>
     <use xlink:href="#m2bbda39689" x="243.032284" y="163.498742" style="fill: #174a75; stroke: #174a75"/>
     <use xlink:href="#m2bbda39689" x="286.120236" y="165.470115" style="fill: #174a75; stroke: #174a75"/>
     <use xlink:href="#m2bbda39689" x="329.208188" y="184.947714" style="fill: #174a75; stroke: #174a75"/>
     <use xlink:href="#m2bbda39689" x="372.296141" y="171.748985" style="fill: #174a75; stroke: #174a75"/>
     <use xlink:href="#m2bbda39689" x="415.384093" y="176.211259" style="fill: #174a75; stroke: #174a75"/>
     <use xlink:href="#m2bbda39689" x="458.472046" y="175.897649" style="fill: #174a75; stroke: #174a75"/>
     <use xlink:href="#m2bbda39689" x="501.559998" y="176.096433" style="fill: #174a75; stroke: #174a75"/>
     <use xlink:href="#m2bbda39689" x="544.64795" y="169.777061" style="fill: #174a75; stroke: #174a75"/>
     <use xlink:href="#m2bbda39689" x="587.735903" y="174.314227" style="fill: #174a75; stroke: #174a75"/>
     <use xlink:href="#m2bbda39689" x="630.823855" y="173.909632" style="fill: #174a75; stroke: #174a75"/>
     <use xlink:href="#m2bbda39689" x="673.911808" y="168.510629" style="fill: #174a75; stroke: #174a75"/>
    </g>
   </g>
   <g id="patch_4">
    <path d="M 39.903365 311.598197 
L 39.903365 18.118365 
" style="fill: none; stroke: #000000; stroke-width: 0.8; stroke-linejoin: miter; stroke-linecap: square"/>
   </g>
   <g id="patch_5">
    <path d="M 39.903365 311.598197 
L 716.99976 311.598197 
" style="fill: none; stroke: #000000; stroke-width: 0.8; stroke-linejoin: miter; stroke-linecap: square"/>
   </g>
   <g id="text_18">
    <text style="font-size: 8px; font-family: 'DejaVu Sans'; text-anchor: middle; fill: #666666" x="673.911808" y="13.716168" transform="rotate(-0 673.911808 13.716168)">Partial</text>
   </g>
   <g id="text_19">
    <text style="font-size: 12px; font-family: 'DejaVu Sans'; text-anchor: middle" x="378.451562" y="12.118365" transform="rotate(-0 378.451562 12.118365)">Rolling-origin macro-F1</text>
   </g>
   <g id="legend_1">
    <g id="line2d_24">
     <path d="M 48.003365 284.685385 
L 57.003365 284.685385 
L 66.003365 284.685385 
" style="fill: none; stroke: #737373; stroke-width: 1.7; stroke-linecap: square"/>
     <g>
      <use xlink:href="#m793f0f3840" x="57.003365" y="284.685385" style="fill: #737373; stroke: #737373"/>
     </g>
    </g>
    <g id="text_20">
     <text style="font-size: 9px; font-family: 'DejaVu Sans'; text-anchor: start" x="73.203365" y="287.835385" transform="rotate(-0 73.203365 287.835385)">Majority</text>
    </g>
    <g id="line2d_25">
     <path d="M 48.003365 298.186088 
L 57.003365 298.186088 
L 66.003365 298.186088 
" style="fill: none; stroke: #b65b25; stroke-width: 1.7; stroke-linecap: square"/>
     <g>
      <use xlink:href="#mb642211367" x="57.003365" y="298.186088" style="fill: #b65b25; stroke: #b65b25"/>
     </g>
    </g>
    <g id="text_21">
     <text style="font-size: 9px; font-family: 'DejaVu Sans'; text-anchor: start" x="73.203365" y="301.336088" transform="rotate(-0 73.203365 301.336088)">Persistence</text>
    </g>
    <g id="line2d_26">
     <path d="M 142.680553 284.685385 
L 151.680553 284.685385 
L 160.680553 284.685385 
" style="fill: none; stroke: #174a75; stroke-width: 1.7; stroke-linecap: square"/>
     <g>
      <use xlink:href="#m2bbda39689" x="151.680553" y="284.685385" style="fill: #174a75; stroke: #174a75"/>
     </g>
    </g>
    <g id="text_22">
     <text style="font-size: 9px; font-family: 'DejaVu Sans'; text-anchor: start" x="167.880552" y="287.835385" transform="rotate(-0 167.880552 287.835385)">Logistic Regression</text>
    </g>
   </g>
  </g>
 </g>
 <defs>
  <clipPath id="p0d8c17e1d5">
   <rect x="39.903365" y="18.118365" width="677.096395" height="293.479832"/>
  </clipPath>
 </defs>
</svg>
