<?xml version="1.0" encoding="utf-8" standalone="no"?>
<!DOCTYPE svg PUBLIC "-//W3C//DTD SVG 1.1//EN"
  "http://www.w3.org/Graphics/SVG/1.1/DTD/svg11.dtd">
<svg xmlns:xlink="http://www.w3.org/1999/xlink" width="584.39952pt" height="296.39952pt" viewBox="0 0 584.39952 296.39952" xmlns="http://www.w3.org/2000/svg" version="1.1">
 <metadata>
  <rdf:RDF xmlns:dc="http://purl.org/dc/elements/1.1/" xmlns:cc="http://creativecommons.org/ns#" xmlns:rdf="http://www.w3.org/1999/02/22-rdf-syntax-ns#">
   <cc:Work>
    <dc:type rdf:resource="http://purl.org/dc/dcmitype/StillImage"/>
    <dc:date>2026-10-09T10:17:42.820181</dc:date>
    <dc:format>image/svg+xml</dc:format>
    <dc:creator>
     <cc:Agent>
      <dc:title>Matplotlib v3.11.2, https://matplotlib.org/</dc:title>
     </cc:Agent>
    </dc:creator>
   </cc:Work>
  </rdf:RDF>
 </metadata>
 <defs>
  <style type="text/css">*{stroke-linejoin: round; stroke-linecap: butt}</style>
 </defs>
 <g id="figure_1">
  <g id="patch_1">
   <path d="M 0 296.39952 
L 584.39952 296.39952 
L 584.39952 0 
L 0 0 
z
" style="fill: #ffffff"/>
  </g>
  <g id="axes_1">
   <g id="patch_2">
    <path d="M 36.199609 256.198661 
L 577.19952 256.198661 
L 577.19952 7.2 
L 36.199609 7.2 
z
" style="fill: #ffffff"/>
   </g>
   <g id="matplotlib.axis_1">
    <g id="xtick_1">
     <g id="line2d_1">
      <defs>
       <path id="m9cd78b94e4" d="M 0 0 
L 0 3.5 
" style="stroke: #000000; stroke-width: 0.8"/>
      </defs>
      <g>
       <use xlink:href="#m9cd78b94e4" x="60.790514" y="256.198661" style="stroke: #000000; stroke-width: 0.8"/>
      </g>
     </g>
     <g id="text_1">
      <text style="font-size: 11px; font-family: 'DejaVu Sans'; text-anchor: middle" x="60.790514" y="271.556082" transform="rotate(-0 60.790514 271.556082)">0.05</text>
     </g>
    </g>
    <g id="xtick_2">
     <g id="line2d_2">
      <g>
       <use xlink:href="#m9cd78b94e4" x="159.154135" y="256.198661" style="stroke: #000000; stroke-width: 0.8"/>
      </g>
     </g>
     <g id="text_2">
      <text style="font-size: 11px; font-family: 'DejaVu Sans'; text-anchor: middle" x="159.154135" y="271.556082" transform="rotate(-0 159.154135 271.556082)">0.10</text>
     </g>
    </g>
    <g id="xtick_3">
     <g id="line2d_3">
      <g>
       <use xlink:href="#m9cd78b94e4" x="257.517755" y="256.198661" style="stroke: #000000; stroke-width: 0.8"/>
      </g>
     </g>
     <g id="text_3">
      <text style="font-size: 11px; font-family: 'DejaVu Sans'; text-anchor: middle" x="257.517755" y="271.556082" transform="rotate(-0 257.517755 271.556082)">0.15</text>
     </g>
    </g>
    <g id="xtick_4">
     <g id="line2d_4">
      <g>
       <use xlink:href="#m9cd78b94e4" x="355.881375" y="256.198661" style="stroke: #000000; stroke-width: 0.8"/>
      </g>
     </g>
     <g id="text_4">
      <text style="font-size: 11px; font-family: 'DejaVu Sans'; text-anchor: middle" x="355.881375" y="271.556082" transform="rotate(-0 355.881375 271.556082)">0.20</text>
     </g>
    </g>
    <g id="xtick_5">
     <g id="line2d_5">
      <g>
       <use xlink:href="#m9cd78b94e4" x="454.244995" y="256.198661" style="stroke: #000000; stroke-width: 0.8"/>
      </g>
     </g>
     <g id="text_5">
      <text style="font-size: 11px; font-family: 'DejaVu Sans'; text-anchor: middle" x="454.244995" y="271.556082" transform="rotate(-0 454.244995 271.556082)">0.25</text>
     </g>
    </g>
    <g id="xtick_6">
     <g id="line2d_6">
      <g>
       <use xlink:href="#m9cd78b94e4" x="552.608615" y="256.198661" style="stroke: #000000; stroke-width: 0.8"/>
      </g>
     </g>
     <g id="text_6">
      <text style="font-size: 11px; font-family: 'DejaVu Sans'; text-anchor: middle" x="552.608615" y="271.556082" transform="rotate(-0 552.608615 271.556082)">0.30</text>
     </g>
    </g>
    <g id="text_7">
     <text style="font-size: 11px; font-family: 'DejaVu Sans'; text-anchor: middle" x="306.699565" y="286.556942" transform="rotate(-0 306.699565 286.556942)">Symmetric transmission beta_0 = beta_1</text>
    </g>
   </g>
   <g id="matplotlib.axis_2">
    <g id="ytick_1">
     <g id="line2d_7">
      <defs>
       <path id="m3dc52522ca" d="M 0 0 
L -3.5 0 
" style="stroke: #000000; stroke-width: 0.8"/>
      </defs>
      <g>
       <use xlink:href="#m3dc52522ca" x="36.199609" y="229.788574" style="stroke: #000000; stroke-width: 0.8"/>
      </g>
     </g>
     <g id="text_8">
      <text style="font-size: 11px; font-family: 'DejaVu Sans'; text-anchor: end" x="29.199609" y="233.967285" transform="rotate(-0 29.199609 233.967285)">1</text>
     </g>
    </g>
    <g id="ytick_2">
     <g id="line2d_8">
      <g>
       <use xlink:href="#m3dc52522ca" x="36.199609" y="181.856388" style="stroke: #000000; stroke-width: 0.8"/>
      </g>
     </g>
     <g id="text_9">
      <text style="font-size: 11px; font-family: 'DejaVu Sans'; text-anchor: end" x="29.199609" y="186.035099" transform="rotate(-0 29.199609 186.035099)">2</text>
     </g>
    </g>
    <g id="ytick_3">
     <g id="line2d_9">
      <g>
       <use xlink:href="#m3dc52522ca" x="36.199609" y="133.924203" style="stroke: #000000; stroke-width: 0.8"/>
      </g>
     </g>
     <g id="text_10">
      <text style="font-size: 11px; font-family: 'DejaVu Sans'; text-anchor: end" x="29.199609" y="138.102914" transform="rotate(-0 29.199609 138.102914)">3</text>
     </g>
    </g>
    <g id="ytick_4">
     <g id="line2d_10">
      <g>
       <use xlink:href="#m3dc52522ca" x="36.199609" y="85.992017" style="stroke: #000000; stroke-width: 0.8"/>
      </g>
     </g>
     <g id="text_11">
      <text style="font-size: 11px; font-family: 'DejaVu Sans'; text-anchor: end" x="29.199609" y="90.170728" transform="rotate(-0 29.199609 90.170728)">4</text>
     </g>
    </g>
    <g id="ytick_5">
     <g id="line2d_11">
      <g>
       <use xlink:href="#m3dc52522ca" x="36.199609" y="38.059832" style="stroke: #000000; stroke-width: 0.8"/>
      </g>
     </g>
     <g id="text_12">
      <text style="font-size: 11px; font-family: 'DejaVu Sans'; text-anchor: end" x="29.199609" y="42.238543" transform="rotate(-0 29.199609 42.238543)">5</text>
     </g>
    </g>
    <g id="text_13">
     <text style="font-size: 11px; font-family: 'DejaVu Sans'; text-anchor: middle" x="15.558281" y="131.69933" transform="rotate(-90 15.558281 131.69933)">Mean final secondary reach</text>
    </g>
   </g>
   <g id="LineCollection_1">
    <path d="M 60.790514 234.487821 
L 60.790514 229.97841 
" clip-path="url(#p494d9eb8a7)" style="fill: none; stroke: #0072b2; stroke-width: 1.5"/>
    <path d="M 237.845031 160.242061 
L 237.845031 152.039481 
" clip-path="url(#p494d9eb8a7)" style="fill: none; stroke: #0072b2; stroke-width: 1.5"/>
    <path d="M 552.608615 37.123892 
L 552.608615 24.04093 
" clip-path="url(#p494d9eb8a7)" style="fill: none; stroke: #0072b2; stroke-width: 1.5"/>
   </g>
   <g id="LineCollection_2">
    <path d="M 60.790514 244.88054 
L 60.790514 234.300872 
" clip-path="url(#p494d9eb8a7)" style="fill: none; stroke: #d55e00; stroke-width: 1.5"/>
    <path d="M 237.845031 184.913584 
L 237.845031 156.894184 
" clip-path="url(#p494d9eb8a7)" style="fill: none; stroke: #d55e00; stroke-width: 1.5"/>
    <path d="M 552.608615 78.643773 
L 552.608615 18.518121 
" clip-path="url(#p494d9eb8a7)" style="fill: none; stroke: #d55e00; stroke-width: 1.5"/>
   </g>
   <g id="LineCollection_3">
    <path d="M 60.790514 234.467329 
L 60.790514 229.95097 
" clip-path="url(#p494d9eb8a7)" style="fill: none; stroke: #009e73; stroke-width: 1.5"/>
    <path d="M 237.845031 160.155793 
L 237.845031 151.93402 
" clip-path="url(#p494d9eb8a7)" style="fill: none; stroke: #009e73; stroke-width: 1.5"/>
    <path d="M 552.608615 36.854192 
L 552.608615 23.735444 
" clip-path="url(#p494d9eb8a7)" style="fill: none; stroke: #009e73; stroke-width: 1.5"/>
   </g>
   <g id="line2d_12">
    <path d="M 60.790514 232.233115 
L 237.845031 156.140771 
L 552.608615 30.582411 
" clip-path="url(#p494d9eb8a7)" style="fill: none; stroke: #0072b2; stroke-width: 1.5; stroke-linecap: square"/>
    <defs>
     <path id="mfa2a71928d" d="M 0 3 
C 0.795609 3 1.55874 2.683901 2.12132 2.12132 
C 2.683901 1.55874 3 0.795609 3 0 
C 3 -0.795609 2.683901 -1.55874 2.12132 -2.12132 
C 1.55874 -2.683901 0.795609 -3 0 -3 
C -0.795609 -3 -1.55874 -2.683901 -2.12132 -2.12132 
C -2.683901 -1.55874 -3 -0.795609 -3 0 
C -3 0.795609 -2.683901 1.55874 -2.12132 2.12132 
C -1.55874 2.683901 -0.795609 3 0 3 
z
" style="stroke: #0072b2"/>
    </defs>
    <g clip-path="url(#p494d9eb8a7)">
     <use xlink:href="#mfa2a71928d" x="60.790514" y="232.233115" style="fill: #0072b2; stroke: #0072b2"/>
     <use xlink:href="#mfa2a71928d" x="237.845031" y="156.140771" style="fill: #0072b2; stroke: #0072b2"/>
     <use xlink:href="#mfa2a71928d" x="552.608615" y="30.582411" style="fill: #0072b2; stroke: #0072b2"/>
    </g>
   </g>
   <g id="line2d_13">
    <path d="M 60.790514 239.590706 
L 237.845031 170.903884 
L 552.608615 48.580947 
" clip-path="url(#p494d9eb8a7)" style="fill: none; stroke: #d55e00; stroke-width: 1.5; stroke-linecap: square"/>
    <defs>
     <path id="macaef2d29c" d="M 0 3 
C 0.795609 3 1.55874 2.683901 2.12132 2.12132 
C 2.683901 1.55874 3 0.795609 3 0 
C 3 -0.795609 2.683901 -1.55874 2.12132 -2.12132 
C 1.55874 -2.683901 0.795609 -3 0 -3 
C -0.795609 -3 -1.55874 -2.683901 -2.12132 -2.12132 
C -2.683901 -1.55874 -3 -0.795609 -3 0 
C -3 0.795609 -2.683901 1.55874 -2.12132 2.12132 
C -1.55874 2.683901 -0.795609 3 0 3 
z
" style="stroke: #d55e00"/>
    </defs>
    <g clip-path="url(#p494d9eb8a7)">
     <use xlink:href="#macaef2d29c" x="60.790514" y="239.590706" style="fill: #d55e00; stroke: #d55e00"/>
     <use xlink:href="#macaef2d29c" x="237.845031" y="170.903884" style="fill: #d55e00; stroke: #d55e00"/>
     <use xlink:href="#macaef2d29c" x="552.608615" y="48.580947" style="fill: #d55e00; stroke: #d55e00"/>
    </g>
   </g>
   <g id="line2d_14">
    <path d="M 60.790514 232.209149 
L 237.845031 156.044906 
L 552.608615 30.294818 
" clip-path="url(#p494d9eb8a7)" style="fill: none; stroke: #009e73; stroke-width: 1.5; stroke-linecap: square"/>
    <defs>
     <path id="mf834bbc68b" d="M 0 3 
C 0.795609 3 1.55874 2.683901 2.12132 2.12132 
C 2.683901 1.55874 3 0.795609 3 0 
C 3 -0.795609 2.683901 -1.55874 2.12132 -2.12132 
C 1.55874 -2.683901 0.795609 -3 0 -3 
C -0.795609 -3 -1.55874 -2.683901 -2.12132 -2.12132 
C -2.683901 -1.55874 -3 -0.795609 -3 0 
C -3 0.795609 -2.683901 1.55874 -2.12132 2.12132 
C -1.55874 2.683901 -0.795609 3 0 3 
z
" style="stroke: #009e73"/>
    </defs>
    <g clip-path="url(#p494d9eb8a7)">
     <use xlink:href="#mf834bbc68b" x="60.790514" y="232.209149" style="fill: #009e73; stroke: #009e73"/>
     <use xlink:href="#mf834bbc68b" x="237.845031" y="156.044906" style="fill: #009e73; stroke: #009e73"/>
     <use xlink:href="#mf834bbc68b" x="552.608615" y="30.294818" style="fill: #009e73; stroke: #009e73"/>
    </g>
   </g>
   <g id="patch_3">
    <path d="M 36.199609 256.198661 
L 36.199609 7.2 
" style="fill: none; stroke: #000000; stroke-width: 0.8; stroke-linejoin: miter; stroke-linecap: square"/>
   </g>
   <g id="patch_4">
    <path d="M 36.199609 256.198661 
L 577.19952 256.198661 
" style="fill: none; stroke: #000000; stroke-width: 0.8; stroke-linejoin: miter; stroke-linecap: square"/>
   </g>
   <g id="legend_1">
    <g id="patch_5">
     <path d="M 43.899609 65.502578 
L 145.723516 65.502578 
Q 147.923516 65.502578 147.923516 63.302578 
L 147.923516 14.9 
Q 147.923516 12.7 145.723516 12.7 
L 43.899609 12.7 
Q 41.699609 12.7 41.699609 14.9 
L 41.699609 63.302578 
Q 41.699609 65.502578 43.899609 65.502578 
z
" style="fill: #ffffff; opacity: 0.8; stroke: #cccccc; stroke-linejoin: miter"/>
    </g>
    <g id="LineCollection_4">
     <path d="M 57.099609 27.108281 
L 57.099609 16.108281 
" style="fill: none; stroke: #0072b2; stroke-width: 1.5"/>
    </g>
    <g id="line2d_15">
     <path d="M 46.099609 21.608281 
L 68.099609 21.608281 
" style="fill: none; stroke: #0072b2; stroke-width: 1.5; stroke-linecap: square"/>
    </g>
    <g id="line2d_16">
     <g>
      <use xlink:href="#mfa2a71928d" x="57.099609" y="21.608281" style="fill: #0072b2; stroke: #0072b2"/>
     </g>
    </g>
    <g id="text_14">
     <text style="font-size: 11px; font-family: 'DejaVu Sans'; text-anchor: start" x="76.899609" y="25.458281" transform="rotate(-0 76.899609 25.458281)">recorded</text>
    </g>
    <g id="LineCollection_5">
     <path d="M 57.099609 43.609141 
L 57.099609 32.609141 
" style="fill: none; stroke: #d55e00; stroke-width: 1.5"/>
    </g>
    <g id="line2d_17">
     <path d="M 46.099609 38.109141 
L 68.099609 38.109141 
" style="fill: none; stroke: #d55e00; stroke-width: 1.5; stroke-linecap: square"/>
    </g>
    <g id="line2d_18">
     <g>
      <use xlink:href="#macaef2d29c" x="57.099609" y="38.109141" style="fill: #d55e00; stroke: #d55e00"/>
     </g>
    </g>
    <g id="text_15">
     <text style="font-size: 11px; font-family: 'DejaVu Sans'; text-anchor: start" x="76.899609" y="41.959141" transform="rotate(-0 76.899609 41.959141)">reversed</text>
    </g>
    <g id="LineCollection_6">
     <path d="M 57.099609 60.11 
L 57.099609 49.11 
" style="fill: none; stroke: #009e73; stroke-width: 1.5"/>
    </g>
    <g id="line2d_19">
     <path d="M 46.099609 54.61 
L 68.099609 54.61 
" style="fill: none; stroke: #009e73; stroke-width: 1.5; stroke-linecap: square"/>
    </g>
    <g id="line2d_20">
     <g>
      <use xlink:href="#mf834bbc68b" x="57.099609" y="54.61" style="fill: #009e73; stroke: #009e73"/>
     </g>
    </g>
    <g id="text_16">
     <text style="font-size: 11px; font-family: 'DejaVu Sans'; text-anchor: start" x="76.899609" y="58.46" transform="rotate(-0 76.899609 58.46)">layer_aware</text>
    </g>
   </g>
  </g>
 </g>
 <defs>
  <clipPath id="p494d9eb8a7">
   <rect x="36.199609" y="7.2" width="540.999911" height="248.998661"/>
  </clipPath>
 </defs>
</svg>
